<?xml version="1.0" encoding="utf-8"?>
<!-- Generator: Adobe Illustrator 17.0.0, SVG Export Plug-In . SVG Version: 6.00 Build 0)  -->
<!DOCTYPE svg PUBLIC "-//W3C//DTD SVG 1.1//EN" "http://www.w3.org/Graphics/SVG/1.1/DTD/svg11.dtd">
<svg version="1.1" xmlns="http://www.w3.org/2000/svg" xmlns:xlink="http://www.w3.org/1999/xlink" x="0px" y="0px" width="2000px"
	 height="400px" viewBox="0 0 2000 400" enable-background="new 0 0 2000 400" xml:space="preserve">
<g id="Layer_2_1_" display="none">
	<rect x="0" display="inline" fill="#232323" width="2000" height="400"/>
</g>
<g id="Layer_1">
	<g id="Layer_2" display="none">
		<rect x="0" display="inline" fill="#6D6E71" width="2000" height="400"/>
	</g>
	<g id="Layer_1_1_">
		<g>
			<g>
				<path fill="#2FA6DE" d="M308.301,333.512c-6.565,5.45-13.441,10.455-20.906,14.618c-1.804-1.968-2.947-4.4-4.582-6.494
					c-1.475-1.889-1.447-1.942-2.853,0.113c-2.843,4.156-5.394,8.486-7.667,12.979c-0.345,0.682-0.598,1.428-1.27,1.892
					c-2.324,1.675-5.058,2.478-7.661,3.538c-9.075,3.698-18.445,6.448-28.016,8.524c-0.286,0.062-0.586,0.063-0.879,0.092
					c-0.977-0.077-0.754-0.914-0.863-1.466c-1.934-9.767-7.038-17.986-12.618-25.98c-0.614-0.88-1.067-0.701-1.592,0.057
					c-5.078,7.325-9.547,14.961-12.123,23.574c-0.538,1.799-0.537,3.642-0.371,5.458c0.122,1.331-0.335,1.818-1.569,1.804
					c-12.437,0.397-24.762-0.658-36.995-2.881c-0.227-0.041-0.439-0.17-0.658-0.258c-0.212-0.218-0.366-0.471-0.388-0.776
					c-0.502-6.994-3.725-12.981-7.041-18.922c-1.584-2.837-3.328-5.583-5.28-8.187c-1.009-1.346-1.253-1.375-2.191-0.027
					c-4.093,5.879-7.787,11.984-10.412,18.686c-0.27,0.689-0.184,1.737-1.344,1.797c-10.471-3.696-20.34-8.64-29.801-14.42
					c-10.953-6.691-21.025-14.533-30.173-23.525c-5.655-5.558-11.084-11.344-15.682-17.845c-2.038-3.128-4.06-6.266-6.259-9.285
					c-0.409-0.561-0.777-1.184-1.508-1.41c-12.722-19.429-21.107-40.588-25.17-63.444c-2.032-11.43-2.881-22.962-2.53-34.574
					c0.07-1.028,0.485-1.805,1.259-2.569c4.231-4.176,5.786-9.162,4.188-14.985c-0.514-1.874-1.146-3.714-1.887-5.513
					c-0.336-0.815-0.659-1.632-0.765-2.516c0.478-4.536,1.672-8.924,2.821-13.316c1.465-5.6,3.136-11.139,5.355-16.496
					c0.907-0.047,1.111,0.77,1.522,1.289c3.718,4.693,9.334,6.48,14.691,4.968c5.723-1.616,11.501-9.146,8.69-17.955
					c-1.955-6.124-4.783-11.818-8.262-17.205c-0.546-0.845-1.182-1.663-0.735-2.77c5.518-8.68,11.721-16.825,18.884-24.223
					c0.682,0.756,0.267,1.571,0.096,2.351c-1.153,5.273,0.71,9.62,4.478,13.093c3.77,3.474,8.354,4.307,13.224,2.652
					c6.773-2.302,10.348-10.165,8.168-17.647c-1.601-5.494-4.261-10.494-7.084-15.425c-0.394-0.688-1.051-1.367-0.381-2.25
					c5.764-4.558,11.731-8.823,18.094-12.514c1.779-0.08,3.197,1.065,4.888,1.407c6.61,1.336,13.221-2.846,15.196-9.781
					c0.225-0.791,0.295-1.641,0.849-2.312c5.267-2.561,10.803-4.417,16.375-6.155c8.006-2.497,16.137-4.485,24.464-5.596
					c1.23-0.233,1.09,0.578,0.912,1.285c-0.245,0.975-0.717,1.876-1.058,2.821c-1.33,3.679-2.081,7.348-0.701,11.247
					c2.067,5.839,8.461,10.158,14.007,9.27c7.081-1.134,11.919-6.574,11.993-13.417c0.043-3.962-1.47-7.499-2.874-11.077
					c-0.268-0.683-0.839-1.36-0.194-2.135c13.152-0.363,26.158,0.873,39.033,3.551c0.596,0.667,0.203,1.35-0.008,1.998
					c-0.512,1.574-0.909,3.176-1.34,4.771c-1.493,5.523,3.455,14.643,11.291,15.701c7.272,0.982,14.223-4.088,15.198-11.367
					c0.154-1.15,0.101-2.367,0.809-3.391c7.719,2.722,15.039,6.312,22.171,10.293c14.04,7.837,26.749,17.462,38.011,28.928
					c22.457,22.862,37.463,49.894,44.821,81.103c2.322,9.85,3.648,19.851,4.164,29.978c1.191,23.409-2.274,46.077-10.39,68.05
					c-0.143,0.388-0.301,0.771-0.452,1.156c-1.059-0.111-1.149-1.091-1.49-1.77c-2.131-4.24-4.647-8.242-7.349-12.132
					c-1.267-1.824-1.488-1.841-2.701-0.071c-4.662,6.805-8.851,13.867-11.374,21.785c-2.482,7.789,1.185,15.214,8.83,18.021
					c0.441,0.162,1.141,0.099,1.06,0.904c-3.601,6.458-7.928,12.421-12.463,18.239c-1.378,1.767-2.858,3.455-4.291,5.179
					c-1.126,0.052-1.25-0.93-1.594-1.616c-2.369-4.709-4.954-9.288-8.088-13.538c-1.242-1.684-1.42-1.689-2.609,0.013
					c-4.66,6.67-8.716,13.661-11.273,21.436c-1.532,4.66-1.203,9.086,1.698,13.183C308.072,332.501,308.502,332.899,308.301,333.512
					z"/>
				<path fill="#75CCF3" d="M94.163,68.635c0.08,1.701,1.308,2.865,2.055,4.235c2.58,4.729,4.955,9.529,6.23,14.801
					c1.822,7.535-2.926,15.394-10.377,17.171c-6.614,1.578-13.69-2.334-16.084-8.768c-1.088-2.924-1.449-5.808-0.473-8.814
					c0.142-0.436,0.103-0.931,0.148-1.399C81.259,79.506,87.605,73.956,94.163,68.635z"/>
				<path fill="#75CCF3" d="M196.115,31.679c0.082,1.463,0.989,2.625,1.463,3.946c1.464,4.076,2.925,8.164,1.665,12.562
					c-2.031,7.088-7.338,10.886-13.647,10.69c-6.913-0.215-11.705-5.158-13.291-11.072c-1.007-3.755,0.065-7.223,1.331-10.678
					c0.284-0.774,0.601-1.538,0.943-2.289c0.289-0.635,0.157-1.018-0.55-1.153c3.013-0.429,6.015-0.995,9.043-1.253
					C187.41,32.063,191.766,31.919,196.115,31.679z"/>
				<path fill="#75CCF3" d="M56.779,110.084c0.594,2.544,2.447,4.399,3.638,6.618c2.521,4.694,4.808,9.469,6.157,14.657
					c1.932,7.432-3.001,15.644-9.816,17.199c-5.593,1.277-10.881-0.229-14.833-5.393c-0.356-0.465-0.702-0.938-1.053-1.407
					c2.901-8.192,6.679-15.979,10.945-23.532C53.38,115.459,55.121,112.795,56.779,110.084z"/>
				<path fill="#75CCF3" d="M346.397,289.188c-1.891-0.771-3.817-1.402-5.469-2.732c-5.048-4.063-6.808-10.085-4.946-15.973
					c2.716-8.587,7.242-16.22,12.437-23.502c0.733-1.027,1.03-0.703,1.625,0.1c2.989,4.038,5.616,8.295,7.946,12.741
					c0.463,0.884,0.954,1.753,1.432,2.629C355.888,271.757,351.696,280.742,346.397,289.188z"/>
				<path fill="#75CCF3" d="M205.332,372.223c0.85-0.239,1.241-0.589,1.1-1.671c-0.59-4.534,1.129-8.616,2.907-12.607
					c2.602-5.841,5.811-11.357,9.506-16.584c1.314-1.859,1.307-1.871,2.693,0.023c4.765,6.511,8.756,13.447,11.351,21.115
					c0.69,2.037,1.062,4.181,1.58,6.276c-3.808,0.983-7.708,1.457-11.585,2.031c-5.466,0.809-10.992,1.037-16.496,1.474
					C206.039,372.308,205.684,372.244,205.332,372.223z"/>
				<path fill="#75CCF3" d="M308.301,333.512c-4.277-5.085-4.355-10.67-2.057-16.589c2.9-7.468,6.825-14.351,11.542-20.81
					c0.725-0.992,1.002-0.961,1.736,0.003c3.548,4.661,6.46,9.693,9.031,14.939c0.278,0.568,0.409,1.258,1.089,1.551
					C323.166,320.224,316.084,327.226,308.301,333.512z"/>
				<path fill="#75CCF3" d="M261.096,42.942c-0.041,7.911-4.335,13.595-11.47,15.18c-5.632,1.251-12.367-2.342-14.881-7.537
					c-2-4.132-1.984-8.132-0.455-12.309c0.36-0.984,0.873-1.948,0.858-3.047C244.009,37.088,252.703,39.51,261.096,42.942z"/>
				<path fill="#75CCF3" d="M141.024,361.655c1.045-1.323,1.323-2.995,1.992-4.488c2.711-6.049,6.116-11.672,9.97-17.048
					c0.639-0.891,1.081-0.996,1.699-0.118c5.51,7.833,10.531,15.908,12.773,25.392c0.293,1.24,0.144,2.462,0.223,3.691
					c-4.968-0.702-9.794-2.03-14.604-3.402C149.001,364.52,144.944,363.289,141.024,361.655z"/>
				<path fill="#75CCF3" d="M133.191,45.434c-0.497,7.444-7.673,14.084-15.654,12.587c-1.911-0.359-3.597-1.055-5.28-1.9
					C118.945,51.99,125.855,48.295,133.191,45.434z"/>
				<path fill="#75CCF3" d="M271.024,356.621c2.544-5.875,5.879-11.287,9.606-16.472c0.375-0.522,0.79-1.263,1.427-0.319
					c1.84,2.727,3.997,5.252,5.339,8.3c-4.952,3.327-10.319,5.888-15.678,8.46C271.526,356.683,271.257,356.614,271.024,356.621z"/>
				<path fill="#75CCF3" d="M32.697,171.57c4.227,8.574,5.399,14.214,0.79,21.171c-0.597,0.9-1.359,1.627-2.138,2.331
					c-0.659,0.596-1.236,1.198-1.447,2.082c0.233-6.182,0.616-12.353,1.541-18.476C31.802,176.298,31.975,173.885,32.697,171.57z"/>
				<path fill="#77CBF2" d="M57.603,295.17c0.374-0.122,0.699-0.382,1.071,0.127c2.465,3.376,4.969,6.724,6.695,10.568
					C62.437,302.549,60.08,298.816,57.603,295.17z"/>
				<path fill="#FFFFFF" d="M278.193,119.338c1.657,1.063,3.013,2.471,4.376,3.863c0.587,0.599,1.145,0.892,2.024,0.703
					c7.187-1.547,14.14-3.801,20.832-6.845c0.526-0.239,0.982-0.632,1.471-0.953c2.143-1.596,4.727-2.391,6.959-3.83
					c0.342-0.221,0.782-0.369,1.162-0.072c0.473,0.371,0.246,0.854,0.112,1.3c-0.736,2.443-1.941,4.677-3.096,6.931
					c-0.317,0.577-0.608,1.169-0.926,1.746c-0.258,0.392-0.521,0.781-0.686,1.227c-0.195,0.448-0.512,0.814-0.797,1.202
					c-2.878,4.1-6.084,7.902-10.019,11.043c-1.582,1.309-3.25,2.498-4.999,3.488c1.739-0.464,3.564-0.613,5.332-1.043
					c2.406-0.411,4.77-1.001,7.131-1.602c0.503-0.136,1.01-0.263,1.502-0.439c0.488-0.145,0.97-0.311,1.467-0.424
					c0.664-0.124,1.291-0.368,1.923-0.595c2.804-0.921,5.6-1.86,8.288-3.09c0.476-0.218,1.076-0.616,1.48-0.184
					c0.516,0.552-0.094,1.099-0.392,1.558c-1.577,2.427-3.372,4.695-5.183,6.948c-0.346,0.462-0.763,0.86-1.164,1.272
					c-0.599,0.508-1.004,1.177-1.476,1.791c-0.591,0.626-1.216,1.217-1.806,1.845c-1.086,1.07-2.167,2.144-3.221,3.246
					c-2.955,3.054-6.189,5.786-9.6,8.313c-0.711,0.527-1.482,1.019-1.41,2.084c0.03,7.254,0.156,14.507-0.789,21.72
					c-0.589,3.535-1.061,7.091-1.793,10.601c-1.995,9.519-4.719,18.821-8.434,27.82c-6.078,14.723-14.28,28.125-24.686,40.212
					c-8.56,9.941-18.423,18.336-29.304,25.592c-2.958,1.594-5.728,3.511-8.69,5.101c-6.286,3.238-12.667,6.253-19.342,8.625
					c-2.999,1.065-6.064,1.903-9.087,2.888c-3.371,0.918-6.773,1.698-10.191,2.42c-6.969,1.448-14.008,2.234-21.113,2.674
					c-4.264,0.264-8.522,0.39-12.771,0.239c-6.44-0.229-12.882-0.627-19.234-1.847c-4.087-0.687-8.151-1.495-12.166-2.53
					c-8.449-2.284-16.709-5.098-24.635-8.839c-0.748-0.566-1.666-0.78-2.493-1.181c-0.497-0.267-0.998-0.527-1.518-0.75
					c-0.463-0.276-1.147-0.288-1.235-1.018c-0.978-0.866-2.216-1.212-3.388-1.689c-2.418-0.96-4.692-2.188-6.78-3.741
					c-0.398-0.296-1.111-0.54-0.9-1.154c0.232-0.675,0.966-0.513,1.541-0.481c3.83,0.215,7.648,0.613,11.493,0.57
					c1.894-0.021,3.749-0.437,5.653-0.406c1.002,0.017,1.952,0.429,2.955,0.254c10.197-0.893,19.959-3.5,29.36-7.499
					c3.364-1.431,6.696-2.936,9.777-4.933c0.373-0.805,1.295-0.875,1.874-1.405c0.193-0.151,0.394-0.289,0.603-0.415
					c3.057-1.838,6.01-3.823,9.048-6.196c-2.304-0.112-4.328-0.291-6.341-0.581c-8.632-1.645-16.463-5.058-23.287-10.643
					c-4.748-3.886-8.722-8.453-11.813-13.768c-0.224-0.59-0.576-1.111-0.919-1.636c-0.213-0.314-0.397-0.641-0.478-1.018
					c-0.048-0.221-0.032-0.442,0.014-0.662c-0.86-2.154-1.719-4.308-2.579-6.461c0.952-0.503,1.713,0.245,2.515,0.045
					c1.141-0.595,2.318,0.174,3.466-0.096c5.048,0.138,10.081,0.082,14.578-1.079c-4.48-1.043-9.131-2.725-13.413-5.368
					c-9.724-5.71-16.672-13.876-21.299-24.096c-1.079-3.379-2.544-6.642-3.028-10.198c-0.527-2.729-0.829-5.476-0.671-8.26
					c0.105-1.846,0.506-2.14,2.169-1.322c2.491,1.226,5.028,2.322,7.675,3.157c0.741,0.275,1.509,0.461,2.275,0.65
					c0.248,0.042,0.491,0.109,0.73,0.186c0.311,0.097,0.624,0.19,0.945,0.255c0.479,0.102,0.946,0.256,1.436,0.302
					c2.116,0.436,4.249,0.753,6.213,0.795c-2.751-2.108-5.728-4.294-8.051-7.215c-4.607-4.886-7.808-10.619-10.162-16.864
					c-0.217-1.037-0.623-2.015-0.946-3.02c-0.266-1.172-0.575-2.332-0.906-3.488c-0.341-2.22-0.964-4.415-0.576-6.697
					c-0.246-7.025,0.358-13.931,2.825-20.588c1.043-2.815,2.265-5.535,3.886-8.254c3.589,4.183,7.039,8.297,11.068,11.862
					c0.595,0.015,0.947,0.441,1.318,0.809c5.675,5.619,12.004,10.431,18.524,15.006c0.586,0.411,1.128,0.842,1.501,1.461
					c7.521,4.937,15.404,9.187,23.774,12.511c3.049,0.505,5.864,1.645,8.548,3.145c6.636,2.487,13.511,4.078,20.466,5.32
					c5.328,0.951,10.685,1.735,16.115,1.816c0.97-0.377,0.782-1.139,0.666-1.91c-0.293-1.953-0.704-3.902-0.354-5.895
					c-0.341-7.935,0.751-15.623,3.96-22.943c0.708-1.614,1.354-3.264,2.44-4.682c0.548-0.723,1.351-0.557,2.093-0.598
					c1.51-0.083,3.034,0.174,4.531-0.194c0.617-0.156,1.249-0.144,1.878-0.157c1.1-0.037,2.215,0.136,3.295-0.226
					c0.705-0.152,1.425-0.101,2.137-0.159c2.441-0.012,4.86-0.324,7.287-0.516c0.391-0.108,0.794-0.134,1.195-0.166
					c1.846-0.019,3.665-0.344,5.497-0.514c0.274-0.076,0.553-0.119,0.835-0.142c0.717-0.053,1.448,0.026,2.147-0.218
					c0.345-0.087,0.697-0.129,1.052-0.145c0.596-0.017,1.197,0.007,1.774-0.192c0.246-0.068,0.497-0.108,0.751-0.13
					c0.58-0.036,1.166-0.018,1.729-0.211c0.247-0.07,0.498-0.116,0.753-0.146c0.173-0.029,0.346-0.045,0.52-0.057
					c0.63-0.029,1.216-0.285,1.838-0.357c4.91-0.727,9.761-1.736,14.555-3.015c0.626-0.164,1.272-0.242,1.887-0.454
					c5.976-1.666,11.793-3.743,17.279-6.675C277.065,119.485,277.547,119.1,278.193,119.338z"/>
				<path fill="#75CCF3" d="M335.315,184.641c-0.122-5.309,1.855-9.464,3.731-13.566c2.553-5.584,5.759-10.823,9.383-15.801
					c0.805-1.106,1.094-0.961,1.805,0.048c5.464,7.752,10.483,15.74,12.617,25.135c1.938,8.533-4.106,18.417-14,18.073
					C341.299,198.266,335.11,191.792,335.315,184.641z"/>
				<path fill="#75CCF3" d="M304.78,231.834c-0.133-4.33,1.354-7.722,2.83-11.04c2.714-6.102,6.009-11.9,9.993-17.285
					c0.529-0.715,1.034-1.49,1.85-0.347c5.365,7.523,10.158,15.336,12.595,24.38c2.071,7.684-2.885,16.291-10.858,17.773
					c-4.823,0.897-10.554-1.252-13.535-5.492C305.461,236.705,304.783,234.69,304.78,231.834z"/>
				<path fill="#75CCF3" d="M141.358,91.592c0.012-3.388,1.285-6.463,2.534-9.507c2.657-6.478,6.285-12.424,10.289-18.149
					c1.092-1.561,1.157-1.544,2.246-0.027c4.844,6.751,9.006,13.861,11.667,21.783c1.826,5.434,1.463,10.488-2.243,15.131
					c-3.202,4.01-8.751,5.949-13.796,4.63C145.926,103.849,141.38,97.951,141.358,91.592z"/>
				<path fill="#75CCF3" d="M268.871,276.103c-0.005-4.705,1.434-8.04,2.875-11.318c2.615-5.948,5.787-11.602,9.621-16.868
					c1.419-1.949,1.476-2.008,2.786-0.144c5.313,7.559,10.109,15.394,12.22,24.54c1.788,7.749-4.147,16.016-11.643,16.93
					C275.687,290.345,268.648,282.529,268.871,276.103z"/>
				<path fill="#75CCF3" d="M44.371,231.68c-0.089-4.299,1.454-7.791,2.991-11.217c2.613-5.824,5.765-11.366,9.481-16.575
					c1.419-1.989,1.473-2.058,2.788-0.165c5.272,7.59,10.032,15.446,12.241,24.564c1.833,7.564-3.805,15.625-11.475,16.895
					C51.337,246.684,44.013,238.274,44.371,231.68z"/>
				<path fill="#75CCF3" d="M266.083,324.065c-0.009,6.29-4.066,11.95-9.639,13.609c-5.99,1.784-12.068-0.473-15.643-5.743
					c-2.976-4.388-3.071-9.044-1.342-13.851c2.836-7.886,6.945-15.088,11.835-21.874c0.741-1.028,1.16-1.15,1.91-0.097
					c4.774,6.706,9.03,13.693,11.646,21.557C265.555,319.785,266.278,321.929,266.083,324.065z"/>
				<path fill="#26A74A" d="M171.775,117.183c4.599-8.626,9.8-16.855,15.839-24.559c4.601-5.87,10.203-10.325,17.22-12.945
					c0.544-0.203,1.045-0.522,1.566-0.787c2.245-1.693,4.93-2.439,7.504-3.383c1.9-0.696,3.674-1.872,5.815-1.819
					c0.615,1.09-0.555,1.211-0.949,1.755c-0.257,0.202-0.536,0.371-0.834,0.503c-0.69,0.199-1.097,0.721-1.464,1.289
					c-0.608,0.556-1.313,1.012-1.774,1.72c-0.557,0.411-0.978,0.929-1.228,1.58c-0.346,0.718-0.753,1.407-0.978,2.179
					c-0.333,1.134-0.863,2.195-1.196,3.328c-0.565,1.722-1.28,3.396-1.607,5.191c-0.034,0.257-0.095,0.508-0.178,0.753
					c-0.427,0.913-0.747,1.867-1.046,2.829c-0.14,0.394-0.263,0.794-0.388,1.193c-0.416,1.018-0.591,2.108-0.929,3.149
					c-0.211,0.55-0.32,1.128-0.471,1.695c-0.183,0.559-0.384,1.111-0.548,1.676c-0.319,0.871-0.459,1.794-0.764,2.669
					c-0.171,0.469-0.301,0.949-0.399,1.438c-0.247,0.863-0.566,1.705-0.741,2.588c-0.214,0.661-0.507,1.305-0.455,2.028
					c-0.011,0.162-0.048,0.317-0.104,0.468c-0.4,0.722-0.673,1.488-0.8,2.306c-0.286,0.74-0.167,1.713-1.168,2.043
					c-2.108-0.299-3.957-1.443-6.073-1.792c-1.637-0.27-3.25-0.537-4.909-0.453c-3.776-0.237-7.398,0.64-11.018,1.52
					c-0.525,0.17-1.09,0.18-1.601,0.408c-0.338,0.14-0.675,0.283-1.024,0.398c-1.146,0.26-2.239,0.682-3.345,1.068
					C173.081,117.445,172.412,117.838,171.775,117.183z"/>
				<path fill="#838485" d="M224.966,132.562c-2.511,0.368-5.029,0.643-7.571,0.623c-1.935-0.388-3.87,0.004-5.784,0.135
					c-1.879,0.128-3.752,0.247-5.634,0.247c-0.73-0.028-1.516,0.098-1.97-0.703c1.294-2.4,3.022-4.509,4.542-6.757
					c0.278-1.2,1.204-1.937,1.98-2.784c1.112-0.922,1.838-2.361,3.461-2.604c1.029-0.044,2.059-0.076,3.08-0.11
					c0.599-1.028,0.111-2.032-0.064-3.044c-0.091-1.631-0.382-3.27,0.23-4.866c0.573-0.576,1.204-0.889,2.002-0.437
					c0.817,1.329,0.266,2.838,0.557,4.236c-0.064,1.452-0.186,2.904-0.077,4.356c0.171,0.526,0.598,0.487,1.011,0.444
					c4.821-0.502,9.672-0.603,14.491-1.106c0.169-0.024,0.339-0.02,0.51,0.008c0.217,0.035,0.436,0.054,0.648,0.116
					c-0.152-0.193-0.55-0.049-0.574-0.422c0.407-0.723,1.058-0.588,1.699-0.494c0.598,0.24,1.147,0.752,1.998,0.332
					c0.104-0.011-0.281-0.16-0.185,0.057c0.029,0.066-0.016,0.099-0.136,0.089c-0.32-0.026-0.696,0.114-0.893-0.292
					c0.363-0.795,1.052-0.615,1.696-0.575c0.953,0.286,1.918,0.295,2.89,0.113c0.33-0.024,0.653,0.114,0.987,0.042
					c-0.262-0.009-0.54,0.009-0.594-0.354c0.325-0.605,0.878-0.534,1.423-0.49c1.532,0.508,2.999-0.101,4.485-0.291
					c1.326-0.17,2.607-0.63,3.961-0.651c0.524-0.008-0.099-0.268,0.071-0.366c0.772-0.9,1.922-0.788,2.913-1.042
					c1.763-0.451,3.549-0.813,5.311-1.274c1.831-0.479,1.86-0.537,1.404-2.433c-0.11-0.457-0.24-0.909-0.352-1.366
					c-0.285-1.936-1.275-3.737-1.102-5.761c0.418-0.725,1.077-0.798,1.81-0.673c0.19,0.052,0.36,0.145,0.511,0.271
					c1.094,2.173,1.296,4.605,1.991,6.893c0.421,1.766,0.421,1.766,2.81,1.336c0.693,0,1.275,0.331,1.868,0.626
					c0.286,0.145,0.567,0.301,0.852,0.447c0.486,0.258,1.006,0.474,1.289,0.995c2.064,1.209,3.999,2.588,5.679,4.303
					c-5.938,3.379-12.245,5.826-18.868,7.477c-0.525-0.267-0.965,0.184-1.462,0.177c-0.21-0.003-0.442-0.071-0.632,0.092
					c0.203-0.099,0.342-0.018,0.448,0.158c-4.928,1.478-9.953,2.488-15.056,3.116c-0.657-0.329-1.199,0.028-1.756,0.295
					c-0.125,0.02-0.25,0.041-0.375,0.061c-0.341-0.306-0.778-0.084-1.174-0.215c0.179,0.135,0.447,0.04,0.549,0.274
					c-0.585,0.339-1.219,0.358-1.867,0.286c-0.471-0.325-1.017-0.056-1.512-0.192c-0.074,0.127-0.074,0.172,0,0.138
					c0.333-0.15,0.647-0.166,0.913,0.136c-0.593,0.336-1.245,0.268-1.887,0.275c-0.638-0.315-1.298-0.102-1.565-0.126
					c-0.621,0.072-0.367,0.401-0.407,0.168c-0.016-0.091,0.016-0.134,0.092-0.146c0.331-0.051,0.668-0.132,0.926,0.185
					c-0.709,0.39-1.482,0.269-2.238,0.283c-0.606-0.356-1.25-0.063-1.461-0.115c0.023,0,0.489-0.215,0.865,0.193
					c-1.921,0.367-3.854,0.61-5.814,0.601c-0.856-0.303-1.718-0.033-2.142-0.11C223.89,132.327,224.452,132.149,224.966,132.562z"/>
				<path fill="#75CCF3" d="M100.569,283.901c-4.741,0.492-9.49,0.901-14.255,0.452c-2.38-0.224-4.777,0.063-7.167-0.441
					c2.301,2.023,5.171,3.039,7.46,4.946c-4.451-0.461-7.392-3.101-9.654-6.708c-2.962-4.721-2.355-9.573-0.471-14.447
					c2.85-7.37,6.764-14.157,11.329-20.585c0.583-0.821,1.132-1.247,1.874-0.189c5.478,7.811,10.558,15.825,12.707,25.303
					c0.779,3.435,0.094,6.651-1.524,9.743C100.592,282.503,99.305,283.069,100.569,283.901z"/>
				<path fill="#DB2D27" d="M296.299,93.426c0.536,0.762,1.364,1.179,2.065,1.746c-0.404,1.412-1.586,0.69-2.433,0.89
					c-1.575,0.048-3.15-0.012-4.724-0.011c-0.392,0.001-0.785-0.006-1.176-0.006c-5.208-0.55-9.573,1.426-13.581,4.508
					c-0.7,0.538-1.422,1.054-2.153,1.552c-0.42,0.279-0.8,0.642-1.344,0.671c-0.531-0.216-0.807-0.729-1.233-1.069
					c-0.1-0.116-0.182-0.244-0.253-0.38c-0.214-0.57-0.641-0.997-0.999-1.471c-0.302-0.542-0.776-0.921-1.244-1.306
					c-0.102-0.116-0.184-0.246-0.252-0.384c-0.198-0.586-0.624-1.024-0.989-1.502c-0.306-0.552-0.793-0.932-1.263-1.328
					c-0.102-0.12-0.185-0.253-0.254-0.394c-0.197-0.625-0.703-0.99-1.171-1.388c-0.101-0.121-0.184-0.254-0.253-0.395
					c-0.196-0.627-0.709-0.987-1.175-1.387c-0.101-0.122-0.184-0.256-0.254-0.398c-0.259-0.791-0.928-1.223-1.516-1.725
					c-0.103-0.122-0.187-0.256-0.257-0.399c-0.259-0.793-0.928-1.228-1.518-1.732c-0.103-0.122-0.187-0.256-0.258-0.399
					c-0.26-0.794-0.929-1.229-1.52-1.734c-0.103-0.122-0.188-0.256-0.258-0.399c-0.275-0.786-0.892-1.257-1.56-1.68
					c-0.396-0.301-0.7-0.675-0.907-1.126c-0.278-0.79-0.888-1.276-1.566-1.7c-0.615-0.538-1.306-1.019-1.472-1.905
					c-0.32-1.807-1.695-2.699-3.094-3.564c-0.146,0.04-0.294,0.061-0.444,0.074c-0.319-0.034-0.562-0.2-0.765-0.437
					c-0.359-0.581-0.833-1.033-1.473-1.297c-0.842-0.461-1.696-0.877-2.697-0.813c-0.348-0.017-0.688-0.074-1.015-0.198
					c-0.7-0.478-1.533-0.493-2.322-0.665c-0.586-0.212-1.246-0.067-1.807-0.352c-0.315-0.16-0.797-0.342-0.234-0.794
					c2.401,0.03,4.803-0.125,7.201,0.083c7.452,0.401,14.84,1.179,21.827,4.044c1.901,0.779,3.706,1.793,5.554,2.699
					c2.217,0.418,3.884,1.905,5.695,3.053c5.683,3.605,11.048,7.662,16.277,11.897C295.854,92.607,296.207,92.923,296.299,93.426z"
					/>
				<path fill="#75CCF3" d="M200.389,310.479c2.164,4.148,4.053,8.46,4.499,13.121c0.587,6.124-3.671,13.704-11.658,15.014
					c-7.761,1.273-14.644-4.647-15.964-11.7c-0.82-4.384,0.908-8.187,2.527-12.035c0.112-0.267,0.214-0.538,0.321-0.808
					c0.063-0.074,0.126-0.147,0.188-0.222c1.069-0.556,2.264-0.574,3.412-0.787c4.563-0.845,9.073-1.912,13.538-3.174
					c0.677-0.191,1.351-0.404,2.061-0.449c0.198-0.002,0.389,0.033,0.575,0.099C200.259,309.743,200.504,310.015,200.389,310.479z"
					/>
				<path fill="#75CCF3" d="M127.899,146.669c-7.655-5.091-14.943-10.635-21.343-17.277c2.69-8.147,7.002-15.432,11.916-22.395
					c0.544-0.771,1.039-1.448,1.93-0.177c4.822,6.88,9.135,13.99,11.832,22.044c2.246,6.706,1.007,12.33-4.112,17.154
					C127.975,146.158,127.97,146.449,127.899,146.669z"/>
				<path fill="#75CCF3" d="M136.41,315.459c2.698,5.76,3.17,11.417-0.649,16.947c-5.256,7.61-16.716,7.631-22.11,0.099
					c-3.525-4.921-3.526-10.073-1.46-15.457c0.802-2.088,1.69-4.143,2.538-6.213c-0.103-0.215-0.046-0.371,0.172-0.47
					c1.698-0.102,3.221,0.659,4.802,1.063c4.978,1.273,9.994,2.34,15.063,3.167C135.423,314.703,136.056,314.799,136.41,315.459z"/>
				<path fill="#75CCF3" d="M173.398,128.936c2.847-0.728,5.69-1.476,8.543-2.181c4.598-1.136,9.231-1.766,13.976-1.018
					c0.798,0.126,1.327,0.504,1.712,1.106c3.418,5.349,2.519,13.973-1.926,18.661c-6.294,6.637-17.409,5.019-21.866-3.061
					c-2.318-4.202-2.333-8.412-0.858-12.795C172.783,129.213,172.773,128.888,173.398,128.936z"/>
				<path fill="#75CCF3" d="M98.039,181.908c-3.341-0.646-6.274-2.331-9.485-3.807c-0.439,3.409,0.073,6.626,0.564,9.845
					c-0.215,2.532,0.498,4.97,0.749,7.455c0.093,0.919,0.466,1.827,0.12,2.767c-0.257,0.256-0.535,0.287-0.834,0.076
					c-8.571,0.397-15.437-7.764-14.126-16.469c0.456-3.026,1.654-5.903,2.946-8.675c2.817-6.04,5.929-11.922,10.121-17.158
					c1.004,0.156,0.8,1.034,0.905,1.644c0.729,4.246,1.604,8.453,3.263,12.449c1.448,3.486,3.146,6.848,5.24,10.001
					C97.869,180.587,98.545,181.09,98.039,181.908z"/>
				<path fill="#75CCF3" d="M296.299,93.426c-5.597-4.311-11.109-8.739-17.102-12.508c-1.892-1.19-3.789-2.373-5.684-3.559
					c2.278-5.086,5.316-9.716,8.512-14.255c0.683-0.97,1.25-0.852,1.869,0.043c4.106,5.929,7.949,12.001,10.618,18.748
					c1.112,2.81,1.969,5.67,2.294,8.68C296.915,91.575,296.769,92.529,296.299,93.426z"/>
				<path fill="#75CCF3" d="M311.642,120.431c1.182-2.617,2.593-5.14,3.408-8.189c-2.906,1.194-5.263,3.123-8.155,3.864
					c1.496-3.495,3.884-6.432,5.971-9.558c0.366-0.548,0.699-0.666,1.185,0.006c5.41,7.482,10.154,15.306,12.734,24.273
					c1.055,3.664,0.693,7.171-1.036,10.552c-0.791,0.008-0.726-0.659-0.834-1.126c-0.352-1.52-1.432-1.761-2.716-1.542
					c-1.408,0.239-2.659,0.964-3.997,1.422c-0.798,0.273-1.606,0.892-2.48,0.156c1.86-2.796,4.185-5.259,6.028-8.433
					c-3.398,1.31-6.492,2.805-9.84,3.551c-0.301-0.822,0.342-1.318,0.686-1.898c1.961-3.305,3.729-6.702,5.102-10.297
					c0.042-0.11,0.091-0.218,0.129-0.33c0.386-1.146,0.778-2.386-0.303-3.29c-1.1-0.92-2.328-0.446-3.495,0.101
					C313.273,120.045,312.668,120.938,311.642,120.431z"/>
				<path fill="#55889A" d="M196.831,125.323c-5.367-1.28-10.615-0.347-15.83,0.909c-2.453,0.591-4.869,1.337-7.302,2.013
					c-0.133-0.126-0.217-0.279-0.254-0.458c-0.025-0.177-0.018-0.354,0.017-0.529c1.273-3.443,3.04-6.65,4.754-9.885
					c0.198-0.216,0.433-0.377,0.707-0.483c4.193-0.924,8.376-1.934,12.727-1.498c0.187,0.032,0.367,0.093,0.539,0.174
					c1.282,0.859,1.71,2.328,2.428,3.565c0.96,1.654,1.886,3.346,2.503,5.178C197.16,124.687,197.135,125.045,196.831,125.323z"/>
				<path fill="#75CCF3" d="M219.898,73.931c-3.612,0.844-6.935,2.483-10.382,3.783c-1.039,0.392-2.078,0.785-3.117,1.178
					c1.401-3.782,3.672-7.096,5.721-10.524c1.025-1.714,2.34-3.253,3.37-4.964c0.77-1.28,1.324-1.224,2.124-0.087
					c2.067,2.938,4.107,5.891,5.822,9.055c0.011,0.279-0.129,0.477-0.341,0.637c-0.833,0.357-1.648,0.758-2.493,1.091
					C220.344,74.145,220.102,74.115,219.898,73.931z"/>
				<path fill="#31A0D3" d="M321.136,147.058c-0.729,1.924-2.316,3.233-3.573,4.744c-4.503,5.41-9.699,10.125-15.262,14.423
					c-0.988,0.763-1.47,1.534-1.436,2.802c0.077,2.897,0.152,5.804-0.003,8.695c-0.289,5.392-0.838,10.757-1.598,16.116
					c-1.204,8.48-3.241,16.767-5.958,24.832c-2.838,8.425-6.208,16.692-10.751,24.399c-0.783,1.328-1.007,3.062-2.622,3.825
					c-0.487-0.694-0.014-1.239,0.305-1.782c3.516-5.982,6.358-12.29,9.044-18.673c0.253-0.6,0.447-1.223,0.513-1.877
					c0.1-0.599,0.293-1.171,0.508-1.737c0.194-0.463,0.447-0.894,0.72-1.314c0.392-0.536,0.565-1.142,0.569-1.803
					c0.073-0.779,0.302-1.504,0.733-2.159c0.624-1.005,0.989-2.092,1.025-3.281c0.029-0.767,0.287-1.49,0.428-2.236
					c0.036-0.164,0.087-0.323,0.143-0.48c0.318-0.764,0.488-1.569,0.662-2.374c0.141-0.482,0.223-0.983,0.457-1.436
					c0.682-0.824,0.83-1.795,0.78-2.822c0.011-0.534,0.091-1.05,0.369-1.517c0.389-0.511,0.358-1.151,0.526-1.731
					c0.353-1.137,0.506-2.312,0.675-3.485c0.408-1.945,0.811-3.889,0.944-5.878c0.018-0.193,0.056-0.382,0.107-0.569
					c0.398-1.897,0.569-3.819,0.641-5.755c0.028-0.204,0.08-0.399,0.147-0.592c0.69-5.633,0.358-11.295,0.495-16.939
					c0.012-0.19,0.051-0.378,0.107-0.56c0.408-1.201,1.42-1.956,2.163-2.911c0.707-0.652,1.38-1.349,2.229-1.831
					c0.584-0.202,1.055-0.546,1.361-1.096c0.404-0.588,0.868-1.111,1.533-1.414c0.755-0.255,1.27-0.788,1.673-1.452
					c1.643-1.901,3.397-3.691,5.319-5.313c0.741-0.504,1.405-1.075,1.74-1.942c0.229-0.523,0.609-0.913,1.08-1.221
					c0.528-0.301,0.902-0.731,1.088-1.317c0.222-0.513,0.608-0.878,1.063-1.181c0.326-0.215,0.576-0.506,0.806-0.819
					C320.238,147.053,320.576,146.638,321.136,147.058z"/>
				<path fill="#307FA1" d="M180.114,314.072c-4.176,0.589-8.363,1.063-12.569,1.398c-4.703,0.375-9.412,0.408-14.119,0.316
					c-5.396-0.105-10.785-0.395-16.115-1.353c-0.402-0.072-0.824-0.04-1.236-0.057c-0.42-0.115-0.623-0.431-0.762-0.811
					c-0.119-0.514-0.254-1.037,0.487-1.205c3.13,0.133,6.223,0.647,9.344,0.9c7.786,0.632,15.558,0.599,23.342-0.005
					c3.302-0.257,6.59-0.585,9.865-1.068c0.647-0.095,1.298-0.117,1.916,0.171c0.762,0.632,0.311,1.138-0.173,1.64L180.114,314.072z
					"/>
				<path fill="#319FD1" d="M200.389,310.479c-0.127-0.233-0.253-0.466-0.38-0.699c0.107-0.137,0.24-0.24,0.398-0.311
					c2.034-0.475,3.997-1.174,5.939-1.93c0.146-0.071,0.299-0.128,0.453-0.176c0.623-0.116,1.215-0.312,1.729-0.701
					c0.639-0.351,1.328-0.566,2.024-0.765c0.614-0.116,1.209-0.283,1.723-0.662c0.528-0.339,1.064-0.662,1.694-0.776
					c0.52-0.052,1.023-0.159,1.455-0.483c0.131-0.081,0.268-0.146,0.41-0.203c0.515-0.168,1.017-0.363,1.463-0.682
					c0.272-0.181,0.56-0.328,0.874-0.422c2.183-0.745,4.21-1.8,6.132-3.065c0.825-0.543,1.587-1.193,2.548-1.504
					c0.549-0.117,1.063-0.304,1.459-0.731c4.537-2.985,9.178-5.813,13.524-9.083c2.222-1.255,4.155-2.915,6.079-4.552
					c3.727-3.173,7.37-6.447,10.785-9.966c1.189-1.225,2.033-2.776,3.518-3.717c0.576-0.257,0.932-1.009,1.728-0.779
					c-0.064,0.224-0.057,0.528-0.204,0.661c-2.932,2.654-5.265,5.868-8.263,8.493c-3.279,2.871-6.444,5.877-9.841,8.619
					c-3.706,2.992-7.61,5.691-11.602,8.297c-3.545,2.313-7.301,4.223-10.951,6.325c-2.581,1.486-5.484,2.4-8.179,3.702
					c-3.858,1.863-7.891,3.253-11.921,4.664C202.145,310.327,201.298,310.59,200.389,310.479z"/>
				<path fill="#3199C8" d="M141.703,270.331c-0.553,0.577-1.265,0.876-1.998,1.137c-5.026-1.843-9.952-3.896-14.361-7.001
					c-3.621-2.551-6.761-5.644-9.83-8.814c-0.259-0.267-0.409-0.57-0.42-0.942c-0.385-0.664-1.013-1.134-1.422-1.779l0.001,0.001
					c-0.609-0.818-1.286-1.586-1.777-2.488l0.001,0.001c-0.591-0.949-1.394-1.765-1.777-2.844l0.001,0.002
					c-1.587-2.806-3.109-5.65-4.059-8.743c-0.714-2.324,0.337-3.621,2.571-3.337c0.166,0.341,0.333,0.683,0.499,1.024
					c-1.803,1.208-1.853,1.299-1.014,3.409c4.394,11.05,11.803,19.468,22.105,25.388c3.193,1.835,6.572,3.193,10.054,4.336
					C140.774,269.846,141.331,269.888,141.703,270.331z"/>
				<path fill="#319ACA" d="M272.514,115.035c-0.476-0.235-0.951-0.47-1.427-0.704c0.287-1.076,1.324-1.071,2.005-1.015
					c2.72,0.224,4.736-1.23,6.823-2.566c1.595-1.021,3.217-1.994,4.932-2.804c3.417-1.615,7.137-1.486,10.767-1.817
					c1.703-0.155,3.432,0,5.148-0.045c0.568-0.015,1.301,0.126,1.514-0.608c0.203-0.696-0.459-1.05-0.89-1.398
					c-0.918-0.743-1.861-1.461-2.875-2.073c-1.423-0.948-2.632-2.174-4.038-3.149c-0.195-0.668,0.172-0.974,0.743-1.148
					c1.703,0.613,2.824,2.046,4.218,3.084c1.13,0.842,2.221,1.768,3.438,2.458c1.236,0.7,1.424,1.712,1.147,2.848
					c-0.274,1.124-1.264,1.508-2.332,1.526c-2.184,0.036-4.375-0.083-6.554,0.039c-2.454,0.137-4.902,0.378-7.334,0.814
					c-2.279,0.408-4.19,1.576-6.035,2.787C278.905,113.14,276.079,114.954,272.514,115.035z"/>
				<path fill="#3199C8" d="M89.154,198.244c0.226-0.011,0.451-0.022,0.677-0.032c0.147-0.12,0.303-0.133,0.468-0.039
					c0.763,1.542,1,3.253,1.559,4.864c3.445,9.922,9.304,18.072,17.708,24.387c0.486,0.366,0.999,0.616,1.593,0.714
					c0.431,0.157,0.818,0.35,0.715,0.921c-1.204,0.179-2.368-0.079-3.532-0.329c-0.803-1.292-2.139-2.046-3.263-2.95
					c-3.221-2.591-5.564-5.89-8.008-9.133c-2.978-3.951-5.054-8.382-6.697-12.995C89.767,201.942,88.869,200.198,89.154,198.244z"/>
				<path fill="#6DB8D7" d="M98.039,181.908c-1.502-2.706-3.194-5.296-4.593-8.07c-2.704-5.361-4.14-11.064-4.987-16.953
					c-0.051-0.353-0.038-0.708-0.365-0.944c0.123-0.343,0.246-0.685,0.369-1.028c0.51-0.426,0.866-0.113,1.214,0.25
					c0.102,0.16,0.175,0.333,0.224,0.515c0.886,6.958,2.69,13.626,6.134,19.801c1.038,1.861,2.275,3.582,3.406,5.376
					c0.329,0.522,0.946,0.949,0.737,1.712C99.437,182.441,98.688,182.339,98.039,181.908z"/>
				<path fill="#31A0D3" d="M114.767,310.501c-0.008,0.112-0.021,0.223-0.038,0.334c-4.048-0.978-7.933-2.44-11.791-3.977
					c-8.093-3.225-15.829-7.145-23.152-11.876c-1.287-0.831-2.011-1.834-1.41-3.381c0.61-1.57,1.948-1.62,3.363-1.545
					c2.752,0.145,5.481,0.693,8.254,0.491c0.468,0.234,0.935,0.469,1.403,0.703c-0.219,0.333-0.581,0.487-0.921,0.42
					c-2.511-0.495-5.074-0.06-7.594-0.469c-1.179-0.191-2.701-0.645-3.306,0.827c-0.633,1.54,0.865,2.172,1.866,2.78
					c6.975,4.241,14.235,7.906,21.806,10.991c3.777,1.539,7.622,2.85,11.462,4.197C114.851,310.15,114.87,310.319,114.767,310.501z"
					/>
				<path fill="#6EB9D9" d="M114.767,310.501c-0.004-0.123-0.008-0.246-0.012-0.369c0.103-0.513,0.427-0.813,0.918-0.955
					c0.191-0.034,0.382-0.033,0.574-0.006c5.854,1.155,11.57,2.949,17.502,3.74c0.705,0.094,1.402,0.248,1.944,0.772
					c0.127,0.231,0.255,0.462,0.382,0.693c0.112,0.361,0.223,0.721,0.335,1.082c-3.09-0.59-6.19-1.135-9.268-1.782
					C122.972,312.801,118.822,311.832,114.767,310.501z"/>
				<path fill="#75CCF3" d="M160.221,162.325c-2.94-0.801-5.749-1.958-8.548-3.145c1.298-0.267,1.489-1.56,2.168-2.387
					c1.426-1.737,1.443-1.807,2.7-0.042C157.831,158.564,158.999,160.463,160.221,162.325z"/>
				<path fill="#6DBCDE" d="M321.136,147.058c-0.501,0.009-0.858,0.24-1.067,0.696c-0.296,0.269-0.625,0.324-0.988,0.152
					c-0.421-0.897,0.3-1.416,0.709-2.003c0.843-1.211,1.8-2.342,2.554-3.615c0.239-0.404,0.522-0.857,0.183-1.314
					c-0.353-0.475-0.864-0.272-1.307-0.138c-2.036,0.62-3.928,1.635-5.982,2.201c-0.643,0.177-1.304,0.683-1.988,0.074
					c0.373-0.678,0.737-1.364,1.469-1.738c2.196-1.012,4.473-1.827,6.744-2.638c1.016-0.363,2.267-0.586,3.079,0.544
					c0.77,1.073,0.564,2.198,0.04,3.355c-0.512,1.132-1.748,1.742-2.047,2.999C322.34,146.375,321.371,146.356,321.136,147.058z"/>
				<path fill="#3099C8" d="M290.233,224.513c-0.382,2.483-1.625,4.656-2.603,6.905c-2.162,4.97-4.546,9.84-7.363,14.484
					c-0.177,0.291-0.226,0.66-0.335,0.992c-0.238,0.473-0.476,0.945-0.714,1.418c-0.593,0.521-0.731,1.371-1.354,1.871
					c-0.255,0.189-0.477,0.488-0.858,0.257c-0.088-0.148-0.134-0.308-0.143-0.48c0.753-2.314,2.341-4.175,3.432-6.308
					c0.48-0.938,1.081-1.813,1.329-2.856c0.116-0.492,0.294-0.962,0.516-1.415c0.622-1.144,1.182-2.319,1.755-3.488
					c0.27-0.484,0.513-0.983,0.754-1.483c0.141-0.282,0.301-0.552,0.5-0.798c0.688-0.661,1.058-1.474,1.158-2.419
					c0.063-0.317,0.189-0.604,0.394-0.854c0.595-0.651,0.874-1.463,1.157-2.273c0.258-0.573,0.504-1.15,0.702-1.746
					c0.263-0.572,0.494-1.156,0.634-1.774c0.058-0.154,0.142-0.292,0.254-0.413C289.861,223.942,290.031,224.261,290.233,224.513z"
					/>
				<path fill="#3183A7" d="M196.831,125.323c-0.01-0.332-0.02-0.665-0.03-0.997c1.214-0.421,2.364,0.033,3.451,0.412
					c1.9,0.663,3.699,0.569,5.534-0.169c0.986-0.397,2.01-0.707,3.031-1.009c0.613-0.181,1.248-0.463,1.846,0.06
					c-0.705,0.829-1.409,1.658-2.113,2.487c-0.935-0.468-1.677,0.143-2.422,0.498C202.733,128.221,199.745,127.082,196.831,125.323z
					"/>
				<path fill="#3188AD" d="M173.698,127.875c0.001,0.123,0.001,0.247,0.001,0.37c-0.101,0.23-0.202,0.461-0.302,0.691
					c-0.303,0.141-0.391,0.409-0.419,0.712c-2.564-0.167-3.011-0.982-1.769-3.176c1.274-2.25,2.51-4.521,3.802-6.76
					c0.299-0.518,0.663-0.926-0.259-1.101c-0.087-0.186-0.052-0.345,0.105-0.477c0.733-0.339,1.469-0.66,2.301-0.353
					c0.53,0.723-0.129,1.213-0.395,1.734c-1.182,2.314-2.616,4.49-3.778,6.819C172.528,127.251,172.626,127.746,173.698,127.875z"/>
				<path fill="#319CCC" d="M277.09,250.446c0.236-0.119,0.472-0.239,0.708-0.358c0.109,0.079,0.145,0.158,0.11,0.238
					s-0.071,0.12-0.107,0.12c-1.911,3.658-4.413,6.922-6.861,10.218c-2.206,2.97-4.492,5.877-6.995,8.608
					c-0.475,0.354-0.95,0.709-1.425,1.063c-0.29-0.267-0.308-0.593-0.209-0.945c0.07-0.157,0.169-0.295,0.291-0.416
					c2.901-2.462,4.93-5.661,7.239-8.62c2.062-2.642,3.953-5.41,5.766-8.231C276.009,251.498,276.283,250.727,277.09,250.446z"/>
				<path fill="#72C5E9" d="M322.535,145.633c-0.674-0.718,0.263-0.996,0.444-1.458c0.184-0.47,0.662-0.815,0.931-1.263
					c0.648-1.082,1.293-2.282,0.314-3.415c-0.953-1.103-2.227-0.65-3.406-0.261c-2.046,0.676-3.9,1.897-6.099,2.137
					c0.334-0.362,0.669-0.724,1.003-1.085c1.591,0.043,2.86-0.93,4.298-1.371c0.723-0.222,1.419-0.584,2.156-0.698
					c2.107-0.327,2.858,0.262,3.22,2.399c0.051,0.299,0.094,0.572,0.352,0.762C325.066,143.09,323.981,144.498,322.535,145.633z"/>
				<path fill="#3C748D" d="M174.788,118.305c-0.01,0.102-0.022,0.204-0.035,0.306c-1.539,0.467-3.077,0.933-4.982,1.511
					c0.796-1.167,1.4-2.053,2.004-2.939c1.943,0.06,3.487-1.401,5.41-1.419c0.308-0.17,0.444-0.001,0.528,0.269
					c-0.04,0.163-0.123,0.3-0.247,0.413C176.512,116.976,175.896,117.996,174.788,118.305z"/>
				<path fill="#595C60" d="M227.369,70.747c0.08-1.657-0.381-3.247-0.622-4.863c-0.09-0.605-0.093-1.064,0.643-1.147
					c0.749-0.085,0.641,0.51,0.709,0.941c0.127,0.81,0.311,1.621,0.33,2.435c0.035,1.506,0.479,2.57,2.224,2.541
					c-0.534,0.659-1.358,0.396-2.023,0.641c-0.27,0.061-0.541,0.072-0.813,0.019C227.546,71.222,227.324,71.089,227.369,70.747z"/>
				<path fill="#319AC9" d="M108.633,235.525c-2.134,0.205-2.842,1.334-2.246,3.536c0.622,2.296,1.855,4.316,2.857,6.44
					c0.324,0.686,0.811,1.308,0.877,2.103c-2.35-2.855-3.583-6.253-4.578-9.732c-0.429-1.498,0.678-3.021,2.863-2.727
					C108.482,235.272,108.558,235.399,108.633,235.525z"/>
				<path fill="#3A94BD" d="M89.497,155.274c-0.321-0.188-0.623-0.431-1.034-0.361c-0.003-2.291-0.019-4.583-0.001-6.874
					c0.004-0.565-0.193-1.189,0.316-1.666c-0.023,2.307,0.797,4.484,1.04,6.749C89.483,153.805,90.264,154.655,89.497,155.274z"/>
				<path fill="#3C93BD" d="M197.114,161.656c0.026,2.284,0.529,4.496,1.034,6.704c0.313,1.369-0.201,1.586-1.346,1.101
					C196.983,166.862,196.418,164.234,197.114,161.656z"/>
				<path fill="#3B6D84" d="M289.881,95.567c0.363,0.001,0.727,0.002,1.09,0.004c1.491,0.468,3.019,0.641,4.576,0.574
					c1.328-0.028,2.671,0.176,3.971-0.271c0.418,0.27,0.965,0.385,1.275,1.228c-1.828,0-3.537,0-5.247,0
					c-0.46,0.122-0.892,0.362-1.387,0.343c-0.574,0.002-1.148-0.005-1.711-0.141C291.498,96.867,290.053,97.155,289.881,95.567z"/>
				<path fill="#736E6D" d="M246.132,70.615c-2.465,0.049-4.93,0.098-7.395,0.148c-0.16,0.15-0.346,0.255-0.557,0.317
					c-1.05,0.044-2.147,0.406-3.073-0.433C238.781,70.162,242.456,70.208,246.132,70.615z"/>
				<path fill="#3C748E" d="M299.519,95.874c-0.301,1.018-1.14,0.727-1.841,0.746c-0.702,0.019-1.404,0.005-2.106,0.005
					c-0.282-0.479,0.068-0.757,0.339-1.059c0.783-0.351,1.75,0.443,2.455-0.393C298.749,95.406,299.134,95.64,299.519,95.874z"/>
				<path fill="#838485" d="M204.007,132.864c0.559,0.117,1.118,0.234,1.677,0.35c1.536,0.545,3.182-0.19,4.715,0.404
					c-2.276,0.444-4.59,0.259-6.884,0.413C203.46,133.55,203.702,133.194,204.007,132.864z"/>
				<path fill="#67ACC8" d="M294.162,96.999c0.462,0.034,0.924,0.068,1.385,0.102c-0.111,0.202-0.221,0.404-0.332,0.606
					c-0.237,0.341-0.473,0.683-0.71,1.024c0.109,0.359-0.098,0.458-0.397,0.484c-0.792-0.467-1.921-0.64-1.721-1.972
					C292.958,97.017,293.608,97.355,294.162,96.999z"/>
				<path fill="#7F5E54" d="M235.107,70.647c1.098,0.047,2.195,0.094,3.293,0.142c0.177,0.296,0.159,0.562-0.121,0.788
					c-1.405,0.551-2.72,0.023-4.049-0.343c-0.187-0.133-0.232-0.304-0.136-0.512C234.432,70.696,234.769,70.672,235.107,70.647z"/>
				<path fill="#7D755E" d="M234.094,70.721c0.01,0.097,0.019,0.195,0.028,0.293c-1.911,0.904-3.818,0.944-5.719-0.031
					c0.687-0.539,1.504-0.18,2.248-0.327C231.799,70.677,232.946,70.699,234.094,70.721z"/>
				<path fill="#319AC9" d="M110.121,247.603c0.687,0.888,1.649,1.606,1.777,2.844C110.857,249.779,110.118,248.923,110.121,247.603
					z"/>
				<path fill="#319AC9" d="M111.897,250.446c0.751,0.716,1.498,1.435,1.777,2.488C112.735,252.352,112.065,251.578,111.897,250.446
					z"/>
				<path fill="#319FD0" d="M277.8,250.446c-0.001-0.119-0.002-0.239-0.003-0.358c0.459-0.604,0.403-1.619,1.42-1.776
					C279.078,249.245,278.649,249.985,277.8,250.446z"/>
				<path fill="#626D6F" d="M227.369,70.747c0.12,0.106,0.241,0.213,0.361,0.319c-0.448,1.194-1.486,1.1-2.467,1.13
					c-0.164-0.14-0.18-0.295-0.049-0.466C225.932,71.403,226.651,71.075,227.369,70.747z"/>
				<path fill="#319AC9" d="M113.673,252.932c0.665,0.44,1.34,0.873,1.422,1.779C114.437,254.265,113.762,253.833,113.673,252.932z"
					/>
				<path fill="#4C5969" d="M225.214,71.731c0.003,0.108,0.007,0.216,0.012,0.323c-0.306,0.862-0.984,1.069-1.806,1.025
					c-0.191-0.052-0.334-0.165-0.431-0.338c0.149-0.123,0.298-0.246,0.447-0.37C224.029,72.158,224.621,71.944,225.214,71.731z"/>
				<path fill="#2F7390" d="M232.264,284.411c6.694-4.569,13.155-9.431,19.065-15.001c17.177-16.188,29.496-35.519,37.436-57.699
					c2.369-6.619,4.04-13.429,5.694-20.247c0.698-1.288,0.693-2.902,1.848-3.978c0.943,0.311,0.759,1.098,0.672,1.764
					c-1.8,13.803-5.428,27.105-10.867,39.925c-4.624,10.898-10.5,21.073-17.641,30.489c-6.554,8.642-13.96,16.478-22.366,23.406
					c-13.371,11.021-28.302,19.074-44.749,24.399c-0.776,0.251-1.537,0.673-2.404,0.368c-1.608-1.682-2.526-3.81-3.696-5.774
					c-0.223-0.374-0.203-0.795,0.126-1.145c9.851-2.823,19.26-6.741,28.36-11.427C227.091,288.648,229.829,286.784,232.264,284.411z
					"/>
				<path fill="#2F7390" d="M180.475,312.62c-2.663-0.1-5.25,0.586-7.876,0.854c-1.861,0.19-3.773,0.412-5.6,0.451
					c-3.95,0.083-7.889,0.708-11.834,0.437c-6.612-0.455-13.275-0.389-19.806-1.763c-0.664-0.178-0.861-0.755-1.081-1.295
					c-0.821-2.021-2.123-3.794-2.981-5.791c-0.199-0.463-0.883-1.344,0.535-1.099c5.449,0.688,10.894,1.378,16.39,1.628
					c7.812,0.356,15.594,0.082,23.372-0.678c4.647-0.454,9.228-1.327,13.837-2.023c0.427,0.522,0.152,1.019-0.114,1.461
					c-1.483,2.461-2.757,5.036-4.15,7.547C180.982,312.552,180.777,312.711,180.475,312.62z"/>
				<path fill="#2F7390" d="M95.205,293.073c7.963,3.554,16.162,6.449,24.551,8.817c0.188,0.35,0.093,0.695-0.084,0.998
					c-0.968,1.661-1.957,3.31-2.858,5.011c-0.247,0.466-0.613,0.854-1.17,0.986c-3.508-0.424-6.674-1.958-9.924-3.166
					c-7.544-2.805-14.755-6.334-21.679-10.444c-0.204-0.121,0.035,0.052-0.151-0.092c-0.71-0.549-1.954-0.873-1.532-2.058
					c0.4-1.122,1.546-0.873,2.475-0.724c2.293,0.367,4.599,0.129,6.899,0.191C92.911,292.623,94.089,292.616,95.205,293.073z"/>
				<path fill="#2F7390" d="M110.01,238.021c7.761,12.817,18.877,20.961,33.578,24.114c0.458,0.098,0.907,0.234,1.361,0.352
					c0.201,0.248,0.283,0.551,0.158,0.828c-0.897,1.984-1.426,4.122-2.52,6.024c-0.623,0.423-1.253,0.195-1.871-0.001
					c-14.817-4.701-25.498-14.031-31.714-28.353c-0.261-0.6-0.478-1.222-0.532-1.87C108.371,237.93,108.772,237.365,110.01,238.021z
					"/>
				<path fill="#2F7796" d="M198.953,307.634c4.264-1,8.329-2.595,12.361-4.253c10.585-4.353,20.535-9.865,29.661-16.789
					c6.021-4.568,11.779-9.472,16.911-15.032c8.546-9.26,15.953-19.341,21.973-30.462c6.14-11.342,10.553-23.308,13.725-35.761
					c1.364-5.354,2.182-10.822,3.011-16.281c0.077-0.503,0.183-1.076-0.311-1.489c-0.493-0.502-0.314-1.103-0.21-1.67
					c0.31-1.697,0.243-3.399,0.135-5.104c0.656-7.551,1.015-15.113,0.848-22.695c0.943,0.296,0.706,1.118,0.712,1.758
					c0.025,2.491,0.169,4.988-0.274,7.013c-0.202-1.154,0.559-2.293,1.79-3.171c5.225-3.724,9.593-8.383,14.099-12.893
					c0.544-0.544,0.948-1.209,1.522-1.726c0.456-0.328,0.947-0.554,1.526-0.515c0.179,0.028,0.34,0.102,0.479,0.219
					c0.189,0.535-0.143,0.917-0.435,1.269c-3.31,3.992-6.797,7.809-10.968,10.941c-1.669,1.128-3.141,2.504-4.732,3.729
					c-1.405,1.082-1.973,2.462-1.953,4.306c0.196,17.793-2.595,35.114-8.642,51.857c-5.755,15.934-13.859,30.575-24.612,43.717
					c-11.069,13.529-24.234,24.532-39.506,33.035c-2.226,1.24-4.515,2.347-6.763,3.538c-6.322,2.901-12.703,5.652-19.456,7.428
					c-0.182,0.009-0.358-0.022-0.528-0.087C199.003,308.302,198.762,308.057,198.953,307.634z"/>
				<path fill="#55889A" d="M115.802,308.672c1.318-2.261,2.636-4.521,3.954-6.782c4.026,0.841,8.051,1.682,12.077,2.524
					c-0.698,0.106-0.443,0.392-0.223,0.814c1.274,2.444,2.505,4.912,3.75,7.371c0.111,0.362,0.222,0.724,0.333,1.086
					c-5.485-0.667-10.84-1.966-16.181-3.328c-1.24-0.316-2.589-0.233-3.708-0.998C115.597,309.129,115.587,308.901,115.802,308.672z
					"/>
				<path fill="#2F7390" d="M92.077,198.173c1.806,3.084,3.301,6.341,5.399,9.264c4.185,5.831,9.398,10.522,15.48,14.285
					c0.35,0.398,0.373,0.878,0.18,1.314c-0.632,1.43-0.818,3.037-1.735,4.351c-1.002,0.522-1.675-0.173-2.366-0.682
					c-3.674-2.706-6.76-5.996-9.509-9.619c-3.847-5.114-6.574-10.775-8.241-16.948c-0.179-0.664-0.558-1.346,0.003-2.017
					C91.56,197.99,91.823,198.016,92.077,198.173z"/>
				<path fill="#2F7390" d="M315.099,149.2c-0.274,0.45-0.473,0.975-0.834,1.339c-4.639,4.674-9.147,9.493-14.491,13.405
					c-1.591,1.165-1.922,1.724-2.434,3.677c0-2.551,0.014-5.102-0.01-7.652c-0.006-0.627,0.21-1.306-0.274-1.87
					c-0.122-0.433,0.165-0.642,0.46-0.855c3.843-2.764,7.35-5.932,10.862-9.092C310.659,148.244,312.911,148.516,315.099,149.2z"/>
				<path fill="#558899" d="M198.953,307.634c0.113,0.236,0.226,0.472,0.339,0.708c-0.543,0.61-1.322,0.767-2.042,0.962
					c-4.706,1.276-9.422,2.522-14.25,3.267c-0.748,0.115-1.519,0.31-2.168-0.309c1.533-2.974,3.067-5.948,4.6-8.922
					c3.317-0.808,6.634-1.615,9.951-2.423c0.213,1.758,1.597,2.919,2.272,4.446C198.006,306.157,198.516,306.88,198.953,307.634z"/>
				<path fill="#55889A" d="M307.292,136.795c-2.419,0.88-4.927,1.382-7.469,1.731c-0.623-1.006-0.887-2.051-0.357-3.186
					c3.728-3.309,7.059-6.974,9.929-11.054c1.379-0.781,2.826-1.429,4.239-2.142c0.593-0.299,1.268-0.485,1.816,0.037
					c0.514,0.49,0.24,1.097,0.026,1.648c-1.609,4.138-3.788,7.96-6.412,11.535C308.596,135.999,307.903,136.344,307.292,136.795z"/>
				<path fill="#307B9B" d="M110.01,238.021c-0.93-0.059-1.446,0.047-1.077,1.274c1.31,4.359,3.649,8.162,6.298,11.776
					c3.153,4.301,6.947,8.001,11.357,11.01c4.852,3.31,10.075,5.856,15.839,7.181c0.259,0.396-0.163,0.529-0.299,0.772
					c-0.141,0.099-0.283,0.198-0.425,0.298c-3.516-0.439-6.667-1.977-9.75-3.53c-5.457-2.75-10.308-6.395-14.435-10.933
					c-4.488-4.934-7.979-10.492-10.191-16.81c-0.662-1.892-0.343-2.296,1.806-2.509C109.425,237.04,109.718,237.531,110.01,238.021z
					"/>
				<path fill="#55889A" d="M111.183,227.349c0.444-1.922,1.509-3.648,1.772-5.627c4.614,2.57,9.462,4.542,14.642,5.826
					c-5.146,1.537-10.387,1.992-15.722,1.511c-0.238-0.22-0.477-0.44-0.715-0.661C110.854,228.042,110.919,227.693,111.183,227.349z
					"/>
				<path fill="#3188AE" d="M115.802,308.672c0,0.229,0.001,0.458,0.001,0.687c-0.108,0.048-0.22,0.083-0.337,0.103
					c-0.733,0.378-1.433,0.277-2.212,0.033c-7.944-2.49-15.56-5.762-22.943-9.589c-2.82-1.461-5.603-2.994-8.301-4.671
					c-1.12-0.696-2.763-1.277-2.253-2.949c0.498-1.631,2.137-1.075,3.379-1.019c3.232,0.146,6.474,0.176,9.68,0.692
					c0.844,0.269,1.686,0.544,2.389,1.116c-3.707-0.161-7.432,0.352-11.129-0.326c-0.548-0.101-1.296-0.182-1.493,0.571
					c-0.182,0.696,0.564,0.829,0.975,1.079c5.3,3.22,10.783,6.096,16.489,8.525C105.197,305.113,110.417,307.121,115.802,308.672z"
					/>
				<path fill="#56899B" d="M103.017,183.235c-0.471-0.11-0.942-0.22-1.412-0.331c-3.884-3.939-6.237-8.799-8.226-13.854
					c-0.991-2.518-1.667-5.147-2.258-7.79c-0.141-0.628-0.532-1.388,0.472-1.731c2.342,6.15,5.648,11.723,9.994,16.673
					C102.397,178.478,103.229,180.751,103.017,183.235z"/>
				<path fill="#558899" d="M315.099,149.2c-2.309,0.097-4.57-0.122-6.72-1.047c1.048-1.075,2.097-2.15,3.145-3.225
					c2.456-1.508,5.387-1.744,7.953-2.965c0.491-0.234,1.072-0.272,1.437,0.269c0.332,0.492,0.276,1.071-0.073,1.501
					c-1.408,1.731-2.449,3.775-4.324,5.11C316.044,148.962,315.571,149.081,315.099,149.2z"/>
				<path fill="#319AC9" d="M92.817,291.957c-3.543,0.364-7.053-0.404-10.587-0.295c-0.768,0.024-1.856-0.405-2.162,0.653
					c-0.316,1.092,0.627,1.656,1.441,2.166c4.952,3.106,10.108,5.849,15.409,8.292c5.134,2.366,10.411,4.4,15.791,6.155
					c0.902,0.294,1.799,0.561,2.759,0.533c-0.237,0.224-0.475,0.448-0.712,0.672c-3.1-0.248-5.92-1.534-8.716-2.673
					c-4.888-1.991-9.81-3.95-14.478-6.447c-3.775-2.02-7.602-3.957-11.172-6.334c-0.914-0.608-1.939-1.393-1.421-2.739
					c0.473-1.227,1.563-1.49,2.781-1.354c0.292,0.033,0.596-0.01,0.882,0.048c2.895,0.587,5.861,0.159,8.764,0.617
					C91.939,291.347,92.417,291.573,92.817,291.957z"/>
				<path fill="#55889A" d="M142.127,270.034c0.1-0.257,0.2-0.514,0.3-0.772c0.573-2.358,1.748-4.491,2.522-6.774
					c2.328,0.218,4.657,0.436,7.422,0.694C148.868,265.764,145.72,268.217,142.127,270.034z"/>
				<path fill="#71C1E2" d="M311.642,120.431c0.983-0.13,1.623-0.913,2.474-1.3c1.286-0.584,2.611-0.952,3.792,0.063
					c1.236,1.062,0.861,2.43,0.379,3.733c-1.633,4.411-3.838,8.53-6.378,12.478c-0.539,0.383-1.145,0.567-1.798,0.614
					c-0.47-0.767,0.188-1.204,0.53-1.703c2.182-3.182,4.035-6.539,5.46-10.127c0.109-0.275,0.238-0.541,0.325-0.825
					c0.294-0.962,0.768-2.078-0.109-2.815c-0.818-0.688-1.582,0.398-2.397,0.592c-1.083,0.258-1.799,1.665-3.168,1.008
					C311.049,121.577,311.346,121.004,311.642,120.431z"/>
				<path fill="#5C95AB" d="M316.516,148.843c0.962-1.758,2.378-3.179,3.56-4.775c0.389-0.526,1.02-1.027,0.542-1.671
					c-0.483-0.651-1.058,0.018-1.561,0.213c-2.456,0.952-4.958,1.752-7.533,2.318c0.576-0.605,1.151-1.211,1.727-1.816
					c2.374-0.467,4.534-1.546,6.794-2.336c0.94-0.329,2.131-1.438,3.026-0.18c0.762,1.071-0.355,1.951-0.921,2.786
					c-1.016,1.501-2.111,2.949-3.173,4.419c-0.021,0.229-0.132,0.413-0.284,0.577c-0.157,0.16-0.338,0.286-0.544,0.375
					c-0.419,0.111-0.828,0.375-1.277,0.096C316.754,148.847,316.635,148.845,316.516,148.843z"/>
				<path fill="#317490" d="M103.017,183.235c-0.503-2.339-1.36-4.606-1.431-7.033c2.719,2.797,5.565,5.446,9.104,7.795
					C107.889,184.191,105.449,183.766,103.017,183.235z"/>
				<path fill="#64A6C0" d="M310.753,122.15c1.366-0.653,2.73-1.311,4.098-1.959c1.655-0.783,2.462-0.259,2.375,1.599
					c-0.079,1.689-0.949,3.135-1.59,4.639c-1.455,3.415-3.569,6.459-5.525,9.59c-0.469,0.129-0.938,0.259-1.407,0.389
					c0.084-1.316,1.112-2.122,1.761-3.107c2.201-3.336,4.06-6.83,5.385-10.602c0.077-0.618,0.622-1.561-0.795-1.129
					c-1.212,0.286-2.127,1.186-3.287,1.574c-0.523,0.175-1.014,0.676-1.595,0.132C310.019,122.721,310.403,122.444,310.753,122.15z"
					/>
				<path fill="#5E98AE" d="M316.168,122.561c-0.836,3.542-2.742,6.587-4.565,9.658c-0.865,1.457-1.926,2.797-2.899,4.19
					c-0.433,0.266-0.891,0.444-1.413,0.386c3.344-3.915,5.861-8.321,7.765-13.089c0.164-0.412,0.612-0.857,0.175-1.284
					c-0.461-0.45-0.982-0.124-1.464,0.097c-1.43,0.657-2.687,1.744-4.374,1.766c0.26-0.337,0.52-0.673,0.78-1.01
					c1.882-0.158,3.188-1.642,4.922-2.142C316.36,120.928,316.464,121.594,316.168,122.561z"/>
				<path fill="#5F9AB0" d="M100.179,182.568c-6.15-7.963-9.716-16.946-10.647-26.969c0.833-0.041,0.697,0.69,0.912,1.142
					c0.763,3.621,1.281,7.293,2.556,10.804c1.742,4.798,3.981,9.311,7.049,13.41c0.371,0.495,1.118,0.943,0.815,1.794
					C100.636,182.688,100.408,182.628,100.179,182.568z"/>
				<path fill="#5E98AE" d="M100.864,182.748c-1.541-2.627-3.436-5.023-4.862-7.734c-3.041-5.78-5.02-11.87-5.77-18.358
					c0.132-0.197,0.271-0.203,0.417-0.015c0.315,0.963,0.629,1.926,0.944,2.889c-0.37,0.326-0.309,0.733-0.214,1.145
					c1.781,7.712,4.666,14.922,9.659,21.167c0.261,0.326,0.555,0.614,0.567,1.063C101.337,182.952,101.072,182.982,100.864,182.748z
					"/>
				<path fill="#6196AB" d="M92.077,198.173c-0.259,0.02-0.517,0.041-0.776,0.061c-0.112,0.111-0.244,0.189-0.395,0.236
					c-0.246,0.023-0.457-0.054-0.635-0.226c-0.146-0.011-0.293-0.021-0.44-0.032c-0.469-2.858-1.135-5.694-1.029-8.619
					c0.02-0.559-0.208-1.18,0.316-1.647c0.362,2.864,1.49,5.505,2.385,8.214C91.723,196.822,91.887,197.502,92.077,198.173z"/>
				<path fill="#357592" d="M299.465,135.339c0.089,1.065,0.527,2.092,0.357,3.186c-1.915,0.603-3.918,0.679-6.003,0.826
					C295.701,138.014,297.583,136.676,299.465,135.339z"/>
				<path fill="#57889A" d="M296.209,180.794c0.92,1.879,0.615,3.806,0.232,5.739c-0.068,0.342-0.105,0.69-0.156,1.035
					c-0.401,1.396-0.785,2.8-1.825,3.896C295.042,187.907,295.625,184.351,296.209,180.794z"/>
				<path fill="#58899B" d="M232.264,284.411c-2.058,3.005-4.825,4.821-8.52,5.08C226.584,287.798,229.424,286.104,232.264,284.411z
					"/>
				<path fill="#7D7F7F" d="M210.398,133.618c-1.557-0.31-3.201,0.403-4.715-0.404c3.36,0.25,6.684-0.5,10.04-0.352
					c0.568,0.025,1.194-0.192,1.671,0.322c-0.662,0.025-1.323,0.05-1.985,0.074c-1.087,0.349-2.239-0.108-3.323,0.272
					C211.524,133.56,210.961,133.589,210.398,133.618z"/>
				<path fill="#458CAF" d="M90.648,156.641c-0.139,0.005-0.278,0.01-0.417,0.015c-0.233-0.353-0.466-0.705-0.699-1.057
					c-0.017-0.108-0.028-0.216-0.035-0.325c0.143-0.712-0.246-1.503,0.321-2.152C90.095,154.295,90.372,155.468,90.648,156.641z"/>
				<path fill="#838485" d="M212.087,133.531c1.064-0.618,2.211-0.221,3.323-0.272C214.328,133.667,213.206,133.581,212.087,133.531
					z"/>
				<path fill="#757878" d="M224.966,132.562c-0.627-0.051-1.255-0.103-1.882-0.154c0.956-0.186,1.915-0.551,2.828,0.051
					C225.596,132.493,225.281,132.528,224.966,132.562z"/>
				<path fill="#7F8181" d="M257.678,127.242c-0.175-0.083-0.471,0.01-0.472-0.325c0.711,0.076,1.375-0.857,2.118-0.101
					C258.775,126.957,258.227,127.1,257.678,127.242z"/>
				<path fill="#747878" d="M240.866,130.652c0.431-1.019,1.077-0.756,1.756-0.295C242.036,130.456,241.451,130.554,240.866,130.652
					z"/>
				<path fill="#757979" d="M231.725,131.858c-0.514-0.054-1.027-0.108-1.541-0.163c0.733-0.227,1.467-0.517,2.136,0.085
					C232.122,131.806,231.924,131.832,231.725,131.858z"/>
				<path fill="#767979" d="M234.559,131.497c-0.396-0.057-0.793-0.114-1.19-0.171c0.737-0.218,1.473-0.493,2.144,0.09
					C235.195,131.443,234.877,131.47,234.559,131.497z"/>
				<path fill="#767979" d="M237.4,131.141c-0.397-0.054-0.794-0.107-1.445-0.195c0.881-0.27,1.489-0.402,2.045,0.113
					C237.8,131.086,237.6,131.113,237.4,131.141z"/>
				<path fill="#757979" d="M239.866,130.772c-0.267-0.047-0.534-0.093-1.101-0.193c0.812-0.256,1.297-0.354,1.726,0.134
					C240.283,130.733,240.074,130.753,239.866,130.772z"/>
				<path fill="#FADC2B" d="M223.416,72.817c0.603-0.254,1.207-0.509,1.81-0.763c0.835-0.329,1.67-0.659,2.504-0.988
					c0.224-0.028,0.448-0.056,0.672-0.083c1.906,0.01,3.813,0.02,5.719,0.031c1.415,0.032,2.801,0.483,4.231,0.301
					c0.471-0.169,0.948-0.081,1.424-0.037c1.207,0.289,2.476,0.294,3.633,0.808c0.29,0.001,0.58,0.001,0.87,0.002
					c1.019,0.386,2.102,0.617,3.013,1.262c0.722,0.158,0.975,0.894,1.538,1.248c0.12,0.111,0.24,0.222,0.36,0.332
					c1.674,0.647,2.624,2.087,3.708,3.38c0.018,0.08,0.034,0.161,0.051,0.241c0.499,0.563,0.997,1.125,1.496,1.688
					c0.561,0.656,1.377,1.094,1.681,1.969c0.268,0.288,0.536,0.575,0.804,0.863c0.558,0.681,1.414,1.114,1.694,2.028l-0.025-0.033
					c0.55,0.763,1.507,1.188,1.801,2.164l-0.022-0.033c0.546,0.766,1.507,1.187,1.797,2.165l-0.022-0.034
					c0.487,0.712,1.359,1.089,1.691,1.937c0.06,0.104,0.121,0.209,0.181,0.313c0.428,0.58,1.168,0.913,1.344,1.693l-0.023-0.034
					c0.437,0.639,1.25,0.978,1.443,1.81l-0.022-0.034c0.335,0.558,1.035,0.807,1.243,1.472c0.316,0.662,1.098,0.989,1.269,1.757
					l-0.021-0.034c0.327,0.563,1.033,0.809,1.238,1.474c0.316,0.663,1.098,0.989,1.269,1.757l-0.019-0.031
					c0.014,0.214-0.013,0.424-0.079,0.628c-0.368,0.683-1.033,0.761-1.684,0.741c-5.316-0.158-10.602,0.338-15.887,0.756
					c-6.04,0.478-12.088,0.954-18.02,2.282c-2.758,1.068-5.658,1.572-8.547,2.121c-1.459-0.208-2.757,0.431-4.101,0.804
					c-3.728,1.035-7.404,2.24-11.064,3.495c-0.503,0.172-0.993,0.357-1.394,0.723c-2.609,1.323-5.298,2.434-8.175,3.041
					c-1.089-0.691,0.086-1.491-0.107-2.225c0.284-0.762,0.483-1.555,0.83-2.295l0.043-0.16c-0.035-0.711,0.323-1.321,0.511-1.975
					c0.052-0.955,0.556-1.789,0.722-2.713c0.059-0.511,0.278-0.979,0.401-1.472c0.309-0.79,0.402-1.641,0.691-2.436
					c0.292-0.607,0.276-1.323,0.666-1.895c0.015-0.602,0.275-1.144,0.422-1.714c0.309-0.794,0.402-1.649,0.695-2.448
					c0.281-0.634,0.466-1.3,0.675-1.959c0.18-0.955,0.576-1.841,0.877-2.757c0.027-0.214,0.053-0.427,0.08-0.641
					c0.689-1.669,1.147-3.418,1.779-5.107c0.345-1.136,0.781-2.24,1.192-3.352c0.257-0.881,0.739-1.665,1.082-2.509
					c0.285-0.591,0.669-1.108,1.156-1.548c0.152-0.947,1.041-1.178,1.642-1.69c0.593-0.407,0.918-1.131,1.638-1.389
					c0.194-0.145,0.388-0.289,0.582-0.434c0.769-0.303,1.429-0.809,2.171-1.164C221.471,73.614,222.434,73.195,223.416,72.817z"/>
				<path fill="#2E5362" d="M202.842,115.868c2.618-1.021,5.236-2.043,7.854-3.064c1.908-1.095,4.013-1.63,6.122-2.159
					c0.2,0.045,0.349,0.155,0.452,0.332c0.263,0.582,0.222,1.147-0.092,1.696c-0.464,0.78-1.274,1.034-2.058,1.254
					c-4.028,1.13-7.937,2.613-11.883,3.987c-1.228,0.428-2.384,0.437-3.614,0.009c-1.779-0.619-3.596-1.135-5.484-1.305
					c-0.739-0.067-1.316-0.483-1.957-0.764l0.004-0.059c-0.838-0.616-1.633-1.258-1.425-2.476c3.917-0.143,7.526,1.032,11.048,2.581
					C202.155,115.923,202.501,115.977,202.842,115.868z"/>
				<path fill="#415F67" d="M190.761,113.318c0.475,0.825,0.95,1.651,1.425,2.476c-4.589-0.334-9.016,0.786-13.488,1.506
					c-0.445-0.932,0.862-1.366,0.635-2.236C183.049,113.869,186.829,113.092,190.761,113.318z"/>
				<path fill="#335D6E" d="M179.334,115.065c0.361,0.066,0.721,0.11,0.37,0.623c-0.356,0.523-0.672,1.073-1.006,1.612
					c-0.118,0.105-0.236,0.21-0.354,0.315c-0.222,0.166-0.465,0.27-0.75,0.25c-1.696-0.595-0.244-1.135,0.029-1.697l0.003-0.003
					c0.078-0.149,0.173-0.29,0.312-0.383c0.136-0.091,0.287-0.163,0.461-0.099c-0.08-0.179-0.335-0.049-0.413-0.232
					C178.347,115.012,178.873,115.151,179.334,115.065z"/>
				<path fill="#5D675E" d="M211.255,86.302c-0.647,1.67-0.814,3.527-1.95,5.006c0.183-1.912,0.934-3.645,1.684-5.379
					C211.142,86.007,211.231,86.132,211.255,86.302z"/>
				<path fill="#5B5F5E" d="M211.255,86.302c-0.089-0.124-0.177-0.249-0.266-0.373c0.401-1.16,0.802-2.32,1.203-3.481
					c0.297-0.025,0.444,0.058,0.271,0.373C212.06,83.982,211.658,85.142,211.255,86.302z"/>
				<path fill="#5D665E" d="M207.86,96.736c-0.174,0.83-0.196,1.717-0.884,2.353l-0.155,0.003c0.106-1.151,0.475-2.225,0.961-3.265
					C208.044,96.11,208,96.419,207.86,96.736z"/>
				<path fill="#4C595E" d="M206.07,102.691c-0.108,0.861-0.328,1.69-0.73,2.464c-0.108,0.173-0.215,0.173-0.32-0.002
					c0.254-0.946,0.508-1.892,0.762-2.838C206.06,102.301,206.262,102.345,206.07,102.691z"/>
				<path fill="#60675E" d="M204.937,106.567c-0.01,1.007-0.447,1.905-0.731,2.842c-0.13,0.11-0.257,0.107-0.382-0.01
					c0.112-0.988,0.353-1.939,0.805-2.83C204.731,106.407,204.834,106.398,204.937,106.567z"/>
				<path fill="#61685F" d="M202.842,115.868c-0.333,0.38-0.677,0.403-1.033,0.032c0.25-0.74,0.499-1.48,0.749-2.221
					c0.148-0.107,0.288-0.098,0.421,0.026C203.092,114.436,202.288,115.109,202.842,115.868z"/>
				<path fill="#57585D" d="M220.601,74.235c-0.664,0.513-1.293,1.102-2.225,1.045c0.507-0.45,1.014-0.899,1.522-1.349
					c0.231-0.028,0.461-0.055,0.692-0.083c0.093,0.083,0.125,0.168,0.098,0.255C220.66,74.191,220.631,74.235,220.601,74.235z"/>
				<path fill="#61665E" d="M212.463,82.821c-0.09-0.125-0.181-0.249-0.271-0.374c0.334-0.716,0.669-1.432,1.003-2.148
					c0.081-0.155,0.167-0.151,0.257-0.008C213.342,81.221,212.921,82.029,212.463,82.821z"/>
				<path fill="#626D5E" d="M202.979,113.705c-0.14-0.009-0.281-0.017-0.421-0.026c0.206-0.784,0.122-1.695,0.965-2.2
					C203.558,112.273,203.287,112.994,202.979,113.705z"/>
				<path fill="#60675E" d="M209.226,91.949c0.098,1.057-0.48,1.936-0.757,2.895c-0.134,0.109-0.263,0.104-0.388-0.014
					C208.349,93.824,208.367,92.719,209.226,91.949z"/>
				<path fill="#696D5E" d="M203.824,109.399c0.127,0.003,0.254,0.007,0.382,0.01c-0.131,0.664-0.17,1.359-0.641,1.909
					C202.972,110.587,203.616,110.022,203.824,109.399z"/>
				<path fill="#5B615E" d="M217.793,75.714c-0.298,0.755-0.978,1.06-1.638,1.389C216.436,76.326,216.89,75.756,217.793,75.714z"/>
				<path fill="#6F755D" d="M206.07,102.691c-0.096-0.125-0.192-0.25-0.288-0.375c0.155-0.486,0.309-0.972,0.464-1.457
					c0.155-0.163,0.299-0.154,0.43,0.029C206.482,101.491,206.52,102.173,206.07,102.691z"/>
				<path fill="#65675E" d="M206.676,100.887c-0.143-0.01-0.286-0.019-0.43-0.029c0.166-0.596,0.145-1.254,0.575-1.765
					c0,0,0.156-0.003,0.155-0.003C207.272,99.755,206.807,100.293,206.676,100.887z"/>
				<path fill="#6F645E" d="M213.452,80.293c-0.086,0.001-0.172,0.003-0.257,0.007c0.26-0.659,0.369-1.45,1.318-1.507
					C214.192,79.316,214.005,79.934,213.452,80.293z"/>
				<path fill="#686B5E" d="M208.081,94.829c0.129,0.005,0.259,0.01,0.388,0.014c-0.203,0.631-0.406,1.261-0.609,1.892
					c-0.026-0.302-0.052-0.605-0.078-0.908C207.812,95.474,207.79,95.105,208.081,94.829z"/>
				<path fill="#386980" d="M177.988,115.451c0.226,0.03,0.452,0.059,0.678,0.089c-0.195,0.46-0.722,0.369-1.039,0.625
					c-0.147-0.133-0.295-0.267-0.442-0.4C177.37,115.449,177.685,115.467,177.988,115.451z"/>
				<path fill="#4A555D" d="M204.937,106.567c-0.103,0.001-0.205,0.002-0.308,0.002c-0.027-0.515,0.143-0.976,0.39-1.416
					c0.107,0,0.214,0.001,0.32,0.002C205.344,105.665,205.219,106.138,204.937,106.567z"/>
				<path fill="#FFFFFF" d="M237.67,119.745c-0.654-0.072-1.3-0.083-1.898,0.26c-0.343,0.428-0.835,0.388-1.305,0.415
					c-0.747,0.039-1.508-0.095-2.239,0.166c-0.55,0.19-1.12,0.203-1.693,0.192c-0.961,0.046-1.931-0.114-2.882,0.139
					c-0.496,0.028-0.968,0.222-1.469,0.211c-1.422,0.08-2.855-0.152-4.268,0.159c-0.91,0.039-1.86,0.58-2.701-0.219
					c0.029-1.512-0.364-3.049,0.271-4.525c0.497-1.123,1.602-1.55,2.548-2.088c7.209-4.101,14.985-6.247,23.265-6.604
					c1.218-0.033,2.434-0.015,3.651-0.015c4.237,0.207,8.401,0.847,12.462,2.104c0.578,0.179,1.081,0.444,1.464,0.917
					c1.283,3.696,1.284,3.7-2.366,4.578c-2.441,0.587-4.886,1.162-7.329,1.742c-2.716,0.995-5.507,1.567-8.413,1.497
					c-0.519,0.013-1.051-0.047-1.511,0.281c-0.176,0.238-0.447,0.295-0.708,0.37c-0.798,0.136-1.594,0.405-2.402,0.049
					c-0.629,0.034-1.278-0.062-1.855,0.297C238.113,119.939,237.898,119.902,237.67,119.745z"/>
				<path fill="#2F7390" d="M265.354,111.859c-0.593-2.337-1.185-4.674-1.778-7.012c1.78-0.943,3.741-0.857,5.651-0.899
					c2.071-0.045,4.126-0.052,6.087-0.829c0.191-0.052,0.388-0.072,0.585-0.07c2.37,0.822,4.663,1.712,7.303,1.7
					c3.744-0.018,6.726-1.37,9.254-3.994c0.524-0.543,0.947-1.219,1.761-1.402c2.395,0.99,4.113,2.901,6.025,4.527
					c0.809,0.688,0.303,1.545-1.021,1.675c-1.698,0.167-3.421,0.334-5.106,0.339c-5.251,0.017-10.086,1.289-14.255,4.468
					c-3.407,2.598-7.224,2.898-11.229,2.704C267.315,113.272,266.228,112.852,265.354,111.859z"/>
				<path fill="#2F7390" d="M192.183,115.853c2.75,0.276,5.444,0.805,8.052,1.74c0.546,0.196,1.074,0.473,1.7,0.259
					c4.888-1.672,9.779-3.332,14.668-5.001c0.163-0.056,0.304-0.177,0.456-0.268c0.061-0.034,0.122-0.068,0.183-0.103
					c0.048,0.05,0.097,0.101,0.145,0.151c-0.005,1.77-0.011,3.541-0.016,5.311c-0.006,0.256-0.122,0.464-0.277,0.657
					c-0.907,1.026-1.995,1.822-3.181,2.493c-1.482,0.33-2.028,1.863-3.25,2.527c-1.768,0.195-3.385,0.93-5.025,1.521
					c-1.794,0.646-3.481,0.806-5.293,0.107c-1.131-0.436-2.359-0.623-3.543-0.922C195.353,121.452,193.976,118.54,192.183,115.853z"
					/>
				<path fill="#2F7390" d="M245.116,108.307c-9.266,0.494-17.83,3.177-25.63,8.236c-0.649-1.387-0.126-2.862-0.318-4.284
					c0.039-0.091,0.078-0.183,0.115-0.275c0.532-0.638,1.314-0.744,2.045-0.954c7.549-2.169,15.21-3.802,23.007-4.777
					c0.646-0.081,1.283-0.212,1.918,0.04C247.077,107.642,245.799,107.807,245.116,108.307z"/>
				<path fill="#2F7390" d="M262.877,110.858c-4.511-1.433-9.136-2.243-13.854-2.55c-0.816-0.606-2.001-0.867-2.042-2.196
					c2.904-0.835,5.919-0.793,8.885-1.115c1.788-0.194,3.597-0.773,5.405-0.066c0.077,0.074,0.152,0.148,0.228,0.223
					C261.958,107.056,262.418,108.957,262.877,110.858z"/>
				<path fill="#3185AA" d="M268.516,113.086c0.237-0.428,0.65-0.523,1.068-0.462c4.826,0.7,8.673-1.573,12.418-4.105
					c3.149-2.129,6.713-2.826,10.391-2.98c2.296-0.096,4.565-0.62,6.878-0.396c0.406,0.039,0.904,0.02,1.012-0.482
					c0.082-0.386-0.318-0.591-0.593-0.808c-1.847-1.454-3.695-2.908-5.542-4.362c-0.094-0.129-0.089-0.257,0.002-0.385
					c0.119-0.125,0.237-0.25,0.356-0.375c1.717,0.385,2.618,1.883,3.899,2.862c0.952,0.699,1.829,1.492,2.854,2.102
					c0.606,0.361,1.202,0.865,0.873,1.729c-0.297,0.78-0.959,0.956-1.726,0.967c-3.07,0.046-6.134,0.045-9.209,0.28
					c-3.724,0.285-7.001,1.53-10.059,3.521c-1.139,0.741-2.321,1.41-3.444,2.177c-1.14,0.779-2.416,1.206-3.843,1.134
					c-1.185-0.06-2.355,0.122-3.494,0.47c-0.643-0.243-1.285-0.486-1.928-0.729C268.457,113.192,268.486,113.139,268.516,113.086z"
					/>
				<path fill="#305462" d="M275.666,103.367c-1.045,0.934-2.39,1.036-3.642,1.019c-2.832-0.038-5.629,0.373-8.448,0.461
					c-0.107-0.028-0.213-0.059-0.319-0.091c-0.503-0.601-0.528-1.216-0.055-1.846c1.662-0.471,3.368-0.421,5.07-0.417
					c1.351,0.003,2.702,0.025,4.045-0.169c0.208,0.074,0.408,0.167,0.599,0.278c0.328-0.208,0.657-0.416,0.985-0.624
					C274.758,102.099,275.624,102.209,275.666,103.367z"/>
				<path fill="#318BB2" d="M270.355,113.974c0.248-0.468,0.655-0.712,1.164-0.643c3.207,0.434,5.877-0.787,8.359-2.645
					c5.077-3.801,10.918-4.698,17.056-4.478c1.18,0.042,2.363,0.008,3.544-0.003c0.665-0.006,1.153-0.367,1.367-0.952
					c0.257-0.7-0.263-1.143-0.787-1.408c-1.074-0.545-2.026-1.199-2.655-2.253c1.592,0.557,2.766,1.72,4.008,2.78
					c0.36,0.307,0.724,0.684,0.51,1.215c-0.236,0.584-0.692,0.949-1.351,0.972c-0.53,0.019-1.062,0.033-1.591,0.009
					c-4.006-0.181-7.984,0.197-11.933,0.764c-2.417,0.347-4.464,1.758-6.561,2.933c-1.125,0.631-2.211,1.344-3.263,2.091
					c-1.291,0.917-2.658,1.458-4.274,1.333c-1.003-0.078-1.965,0.171-2.862,0.641C270.843,114.212,270.599,114.093,270.355,113.974z
					"/>
				<path fill="#828484" d="M230.537,120.473c0.542-0.029,1.084-0.059,1.627-0.088c0.708-0.238,1.44-0.091,2.161-0.132
					c0.403,0.04,0.835-0.113,1.201,0.178c-1.338,0.768-2.876,0.465-4.282,0.605c-3.672,0.365-7.379,0.396-11.06,0.784
					c-0.396,0.042-1.404,0.456-0.969-0.752c0.881,0.01,1.762,0.021,2.643,0.032c1.455-0.377,2.962,0.107,4.417-0.272
					c0.432-0.029,0.864-0.057,1.296-0.086C228.536,120.397,229.572,120.826,230.537,120.473z"/>
				<path fill="#E8E8E8" d="M213.913,121.093c0.818-1.222,2.112-1.909,3.191-2.838c0.937,0.735,0.445,1.622,0.262,2.476
					C216.283,121.5,215.059,120.932,213.913,121.093z"/>
				<path fill="#818282" d="M244.769,118.676c2.804-0.499,5.609-0.998,8.413-1.497c0.232,0.028,0.464,0.055,0.696,0.083
					c0.02,0.089,0.041,0.178,0.061,0.266c-1.878,0.374-3.745,0.829-5.639,1.093C247.144,118.781,245.953,119.521,244.769,118.676z"
					/>
				<path fill="#595C5F" d="M263.236,103.038c0.007,0.573,0.013,1.145,0.02,1.718c-0.599,0.076-1.227,0.023-1.758,0.399
					l-0.044-0.083c-0.514-0.717-1.092-1.274-2.083-1.275c-0.446,0-1.091,0.042-1.139-0.717
					C259.899,102.783,261.565,102.577,263.236,103.038z"/>
				<path fill="#646461" d="M219.168,112.26c-0.594,0.124-1.188,0.248-1.782,0.372l-0.043-0.066
					c-0.288-0.508,0.111-1.133-0.279-1.624l-0.019-0.148c0.588-0.805,1.378-0.906,2.272-0.655c0.443,0.705,0.314,1.381-0.1,2.043
					L219.168,112.26z"/>
				<path fill="#F0F1F3" d="M268.516,113.086c-0.053,0.04-0.082,0.093-0.088,0.159c-0.213,0.084-0.422,0.181-0.64,0.252
					c-2.104,0.681-2.105,0.679-2.434-1.638C266.408,112.268,267.462,112.677,268.516,113.086z"/>
				<path fill="#7A7C7C" d="M218.542,120.726c0-1.134,0-2.268,0-3.402c0.054-0.003,0.107-0.006,0.161-0.01c0,1.123,0,2.245,0,3.368
					C218.649,120.697,218.595,120.711,218.542,120.726z"/>
				<path fill="#737677" d="M217.366,120.73c-0.198-0.813,0.23-1.693-0.262-2.475c0.09-0.104,0.179-0.208,0.267-0.312
					c0.734,0.874,0.335,1.87,0.295,2.825c-0.001,0.019-0.099,0.053-0.146,0.046C217.465,120.806,217.417,120.76,217.366,120.73z"/>
				<path fill="#818383" d="M240.148,119.376c0.831-0.112,1.662-0.224,2.493-0.336c0.149,0.071,0.263,0.179,0.344,0.322
					C242.042,119.912,241.096,119.899,240.148,119.376z"/>
				<path fill="#767979" d="M235.525,120.431c-0.354-0.002-0.709-0.005-1.063-0.007c-0.118-0.071-0.157-0.141-0.117-0.21
					s0.079-0.104,0.12-0.104c0.436-0.035,0.872-0.07,1.307-0.105c0.276,0.055,0.552,0.109,0.87,0.173
					C236.298,120.596,235.879,120.351,235.525,120.431z"/>
				<path fill="#747777" d="M237.67,119.745c0.208-0.024,0.415-0.048,0.623-0.072c0.388,0.051,0.776,0.102,1.452,0.192
					C238.831,120.111,238.222,120.251,237.67,119.745z"/>
				<path fill="#747878" d="M242.985,119.362c-0.115-0.107-0.23-0.215-0.344-0.322c0.206-0.028,0.412-0.055,0.617-0.083
					c0.272,0.048,0.544,0.097,0.875,0.156C243.753,119.514,243.343,119.293,242.985,119.362z"/>
				<path fill="#426068" d="M275.666,103.367c-0.313-0.814-1.306-0.762-1.766-1.389c1.465-1.068,2.951-2.108,4.391-3.209
					c3.438-2.63,7.358-3.469,11.59-3.202c0.483,1.085,1.742,0.799,2.493,1.411c-0.139,0.24-0.269,0.488-0.539,0.613
					c-1.264,0.268-2.551,0.445-3.833,0.524c-3.257,0.202-5.88,1.907-8.592,3.434c-1.122,0.631-2.13,1.48-3.41,1.813
					C275.889,103.363,275.778,103.365,275.666,103.367z"/>
				<path fill="#588798" d="M295.91,95.565c-0.113,0.353-0.226,0.706-0.339,1.059c-1.643,0.128-3.216-0.053-4.6-1.053
					C292.618,95.394,294.264,95.42,295.91,95.565z"/>
				<path fill="#E72328" d="M249.364,74.498c1.606,0.2,3.872,2.762,3.586,4.053l-0.025-0.011
					C251.974,76.985,250.288,76.077,249.364,74.498z"/>
				<path fill="#5D5159" d="M249.364,74.498c1.17,1.362,2.892,2.238,3.561,4.042c-1.244-1.203-2.489-2.407-3.734-3.61
					C249.249,74.786,249.307,74.642,249.364,74.498z"/>
				<path fill="#606B63" d="M243.41,72.085c-1.244-0.209-2.487-0.419-3.731-0.628c0.52-0.375,1.066-0.266,1.615-0.084
					C242.034,71.509,242.928,71.186,243.41,72.085z"/>
				<path fill="#675F5C" d="M247.248,73.468c-0.966-0.51-2.134-0.584-2.967-1.38c1.136-0.05,2.128,0.309,2.98,1.06
					c0.126,0.076,0.166,0.149,0.121,0.218C247.337,73.434,247.293,73.468,247.248,73.468z"/>
				<path fill="#5E5158" d="M241.294,71.373c-0.538,0.028-1.076,0.056-1.615,0.084c-0.442-0.048-0.885-0.095-1.327-0.143
					c0.015-0.176,0.031-0.352,0.046-0.527c0.111-0.034,0.223-0.043,0.338-0.025C239.502,71.333,240.528,70.809,241.294,71.373z"/>
				<path fill="#5E595B" d="M258.625,85.098c-0.657-0.599-1.337-1.178-1.694-2.028C257.901,83.408,258.484,84.069,258.625,85.098z"
					/>
				<path fill="#5B5A5D" d="M256.128,82.208c-0.641-0.588-1.344-1.121-1.681-1.969C255.419,80.543,255.957,81.219,256.128,82.208z"
					/>
				<path fill="#605C5D" d="M260.401,87.229c-0.692-0.645-1.392-1.282-1.801-2.163C259.585,85.467,260.26,86.126,260.401,87.229z"/>
				<path fill="#605C5C" d="M262.176,89.362c-0.713-0.627-1.382-1.29-1.797-2.165C261.366,87.596,262.025,88.268,262.176,89.362z"/>
				<path fill="#63595A" d="M263.845,91.265c-0.793-0.446-1.303-1.138-1.691-1.937C263.042,89.691,263.677,90.274,263.845,91.265z"
					/>
				<path fill="#655659" d="M267.973,96.63c-0.49-0.472-1.009-0.924-1.204-1.616c0.794,0.252,1.205,0.862,1.484,1.594
					C268.17,96.744,268.077,96.751,267.973,96.63z"/>
				<path fill="#65635F" d="M247.248,73.468c0.002-0.107,0.007-0.213,0.012-0.32c0.764,0.221,1.389,0.593,1.57,1.449
					C248.304,74.221,247.776,73.844,247.248,73.468z"/>
				<path fill="#62605E" d="M271.768,101.438c-0.54-0.454-1.031-0.948-1.305-1.617c0.085-0.177,0.184-0.185,0.299-0.027
					C271.317,100.208,271.817,100.655,271.768,101.438z"/>
				<path fill="#625B5C" d="M270.762,99.795c-0.099,0.013-0.199,0.022-0.299,0.027c-0.469-0.487-0.995-0.932-1.203-1.614
					C270.077,98.437,270.463,99.075,270.762,99.795z"/>
				<path fill="#625F5D" d="M267.973,96.63c0.093-0.006,0.186-0.013,0.279-0.023c0.603,0.381,1.036,0.87,1.028,1.635
					C268.753,97.779,268.237,97.306,267.973,96.63z"/>
				<path fill="#62585A" d="M266.791,95.048c-0.603-0.506-1.178-1.035-1.443-1.81C266.194,93.55,266.699,94.134,266.791,95.048z"/>
				<path fill="#61575A" d="M265.371,93.271c-0.562-0.474-1.135-0.939-1.344-1.693C264.916,91.791,265.256,92.442,265.371,93.271z"
					/>
				<path fill="#676562" d="M272.916,102.602c-0.179,0.003-0.357,0.006-0.536,0.009c-0.368-0.247-0.805-0.445-0.725-1.012
					c0.062-0.049,0.093-0.113,0.094-0.191C272.363,101.586,272.763,101.973,272.916,102.602z"/>
				<path fill="#3193BE" d="M210.657,306.217c-0.709,0.238-1.419,0.476-2.128,0.714c-0.494,0.485-1.198,0.444-1.779,0.709v-0.001
					c-2.104,0.792-4.242,1.479-6.395,2.126c-0.116,0-0.232,0.005-0.347,0.014c-0.115-0.032-0.23-0.064-0.345-0.096
					c-0.221-0.234-0.199-0.48-0.036-0.732c3.295-1.414,6.795-2.258,10.103-3.646c3.465-1.454,6.969-2.813,10.29-4.587
					c6.207-2.923,12.072-6.431,17.723-10.313c1.067-0.733,2.007-1.658,3.223-2.174c0.261-0.068,0.516-0.058,0.765,0.049
					c0.065,0.059,0.129,0.118,0.193,0.177c-1.845,1.927-4.157,3.241-6.328,4.725c-2.331,1.593-4.779,3.013-7.176,4.509
					c-0.4,0.384-0.968,0.434-1.422,0.71c-0.828,0.474-1.656,0.948-2.485,1.422c-2.078,1.173-4.222,2.215-6.396,3.195
					c-0.236,0.119-0.472,0.238-0.709,0.357c-0.569,0.295-1.221,0.383-1.777,0.711l0,0c-0.404,0.377-0.966,0.438-1.422,0.709
					c-0.592,0.237-1.183,0.474-1.775,0.711C211.866,305.803,211.215,305.893,210.657,306.217z"/>
				<path fill="#5D97AD" d="M199.67,309.036c-0.002,0.217-0.004,0.433-0.007,0.649c-6.067,1.879-12.257,3.237-18.509,4.32
					c-0.343,0.059-0.706-0.001-1.06-0.006c0.127-0.46,0.254-0.919,0.381-1.379c0.119-0.119,0.238-0.238,0.357-0.357
					c4.748-0.351,9.297-1.68,13.893-2.795c1.524-0.37,2.967-1.073,4.567-1.126l0.016-0.001
					C199.477,308.547,199.837,308.654,199.67,309.036z"/>
				<path fill="#327997" d="M177.643,117.608c0.234,0.002,0.468,0.004,0.701,0.006c-1.547,3.301-3.094,6.602-4.641,9.903
					c-1.374,0.213-1.058-0.638-0.791-1.339c0.438-1.151,1.182-2.148,1.759-3.231c0.878-1.648,1.839-3.248,2.755-4.875
					C177.424,117.884,177.497,117.729,177.643,117.608z"/>
				<path fill="#3180A3" d="M177.618,117.927c-1.285,2.339-2.638,4.644-3.812,7.037c-0.355,0.725-1.714,1.658-0.102,2.555
					c-0.002,0.119-0.004,0.238-0.006,0.357c-0.469,0.233-0.937,0.572-1.442,0.084c-0.475-0.458-0.104-0.891,0.106-1.271
					c1.617-2.915,3.26-5.816,4.894-8.721C177.36,117.806,177.48,117.785,177.618,117.927z"/>
				<path fill="#53525C" d="M220.601,74.235c-0.004-0.129-0.008-0.258-0.011-0.387c0.627-0.743,1.536-0.875,2.399-1.107
					c0.142,0.025,0.285,0.051,0.427,0.076C222.552,73.437,221.601,73.884,220.601,74.235z"/>
				<path fill="#3197C5" d="M298.758,191.83c0,0.118,0,0.236-0.001,0.354c-0.326,0.403-0.117,0.886-0.198,1.325
					c-0.082,0.443-0.279,0.599-0.672,0.269c-0.749-1.754,0.33-3.484,0.064-5.233c0.652-4.617,1.039-9.252,1.027-13.918
					c-0.005-2.07-0.005-4.139,0.005-6.209c0.007-1.465,0.49-2.659,1.848-3.377c0.189-0.061,0.384-0.066,0.578-0.02
					c0.571,0.383,0.133,0.704-0.112,0.955c-0.487,0.498-0.91,1.021-1.117,1.695l0,0c-0.423,2.754-0.178,5.527-0.155,8.286
					c0.027,3.295-0.326,6.557-0.555,9.832l0,0C299.193,187.799,299.104,189.83,298.758,191.83z"/>
				<path fill="#318BB2" d="M295.207,207.816c-0.055,0.49,0.163,1.048-0.353,1.425c-0.326,0.802-0.424,1.67-0.713,2.483l0,0
					c-0.258,0.822-0.551,1.636-0.595,2.51c-0.187,0.488-0.126,1.172-0.926,1.177c-0.813-0.375-0.414-0.983-0.255-1.502
					c1.081-3.516,1.849-7.113,2.785-10.666c0.139-0.141,0.307-0.213,0.505-0.217c0.199,0.026,0.344,0.129,0.433,0.309
					c0.008,0.551,0.032,1.104-0.055,1.653C295.846,205.956,295.785,206.962,295.207,207.816z"/>
				<path fill="#3099C8" d="M299.469,185.791c0.339-5.658,0.42-11.322,0.356-16.988c-0.005-0.413-0.033-0.838,0.355-1.13
					c0,3.844,0.079,7.691-0.032,11.531C300.084,181.405,300.046,183.633,299.469,185.791z"/>
				<path fill="#3197C5" d="M292.718,217.761c-0.518,0.617-0.677,1.354-0.71,2.132c-0.325,0.557-0.415,1.209-0.71,1.778
					c-0.235,0.357-0.469,0.714-0.704,1.071c-0.059-0.063-0.118-0.126-0.177-0.189c-0.288-0.695,0.129-1.358,0.089-2.042
					c0.021-0.359,0.089-0.71,0.171-1.06c0.676-1.154,0.342-2.844,1.877-3.542C293.257,216.469,292.872,217.125,292.718,217.761z"/>
				<path fill="#3197C5" d="M314.388,154.173c-1.921,1.632-3.697,3.41-5.33,5.329c-0.221,0.191-0.459,0.225-0.716,0.073
					c0.32-1.412,4.695-5.792,6.117-6.122C314.613,153.71,314.579,153.949,314.388,154.173z"/>
				<path fill="#3099C8" d="M292.718,217.761c-0.083-0.598,0.227-1.269-0.333-1.777c-0.197-0.37,0.038-0.551,0.312-0.715
					c0.241-0.355,0.483-0.709,0.724-1.064c0.123-0.169,0.245-0.167,0.364,0.004C293.783,215.5,293.376,216.668,292.718,217.761z"/>
				<path fill="#3099C8" d="M298.045,193.959c0.682-0.413,0.035-1.36,0.713-1.775c-0.085,2.061-0.327,4.094-1.064,6.04
					c-0.059-0.056-0.118-0.112-0.178-0.168c-0.277-0.537-0.221-1.102-0.146-1.67c0.027-0.156,0.068-0.309,0.115-0.459
					c0.231-0.581,0.083-1.244,0.387-1.81C297.928,194.064,297.987,194.012,298.045,193.959z"/>
				<path fill="#3197C5" d="M304.441,163.41c-0.71,0.592-1.421,1.184-2.131,1.776c-0.235,0.197-0.471,0.22-0.708,0.004l-0.004-0.005
					c0.476-1.685,1.872-2.368,3.291-3.028c0.173,0.047,0.292,0.157,0.363,0.32C305.183,162.962,304.765,163.146,304.441,163.41z"/>
				<path fill="#3099C8" d="M298.758,191.83c-0.026-2.044,0.182-4.061,0.711-6.04C299.494,187.835,299.473,189.873,298.758,191.83z"
					/>
				<path fill="#3099C8" d="M295.207,207.816c-0.034-1.015,0.209-1.962,0.701-2.847c0.124-0.172,0.245-0.163,0.364,0.004
					C296.254,206.047,296.417,207.189,295.207,207.816z"/>
				<path fill="#3197C5" d="M307.283,160.924c-0.605,0.342-1.079,0.815-1.422,1.419c-0.235,0.197-0.47,0.221-0.707,0.004
					l-0.004-0.006c0.335-1.499,1.241-2.388,2.781-2.597C308.337,160.478,307.593,160.582,307.283,160.924z"/>
				<path fill="#3197C5" d="M317.23,150.976c-0.477,0.233-0.832,0.589-1.065,1.067c-0.439,0.437-0.614,1.222-1.468,1.114
					c-0.246-1.693,1.238-2.129,2.161-2.973c0.171-0.031,0.327,0.002,0.467,0.108C317.45,150.541,317.424,150.77,317.23,150.976z"/>
				<path fill="#3197C5" d="M318.284,148.491c0.126-0.12,0.252-0.24,0.378-0.36c0.406-0.221,0.731-0.282,0.698,0.357
					c-0.476,0.234-0.832,0.589-1.064,1.067c-0.324,0.283-0.402,0.933-1.063,0.713l-0.005-0.004
					C316.694,149.146,317.72,148.956,318.284,148.491z"/>
				<path fill="#3099C8" d="M301.602,165.19c0.236-0.001,0.472-0.002,0.708-0.004c-0.71,0.829-1.42,1.658-2.131,2.487
					C299.977,166.458,301.204,166.061,301.602,165.19z"/>
				<path fill="#3099C8" d="M297.694,198.225c0.031,1.238-0.037,2.456-0.71,3.553c-0.059-0.057-0.117-0.113-0.177-0.169
					c-0.243-0.462-0.203-0.948-0.126-1.438c0.027-0.161,0.069-0.319,0.114-0.476c0.283-0.499-0.082-1.397,0.896-1.471
					L297.694,198.225z"/>
				<path fill="#3099C8" d="M314.735,153.105c0.477-0.354,0.953-0.708,1.43-1.062c-0.17,1.063-1.019,1.559-1.777,2.13
					c-0.001-0.239-0.002-0.477-0.003-0.716C314.313,153.151,314.425,153.029,314.735,153.105z"/>
				<path fill="#3197C5" d="M296.272,204.973c-0.121-0.001-0.243-0.003-0.364-0.004c0.003-0.59,0.007-1.18,0.01-1.771
					c0.077-0.551-0.392-1.437,0.8-1.308c0.087,0.56,0.21,1.123-0.091,1.662C296.108,203.926,296.323,204.483,296.272,204.973z"/>
				<path fill="#3099C8" d="M307.283,160.924c0.236-0.359,0.471-0.717,0.707-1.076c-0.075-0.309,0.047-0.421,0.351-0.349
					c0.239,0.001,0.477,0.002,0.716,0.003C308.618,160.165,308.184,160.835,307.283,160.924z"/>
				<path fill="#3197C5" d="M294.141,211.724c-0.023-0.902,0.096-1.764,0.713-2.483C294.868,210.141,294.75,211.003,294.141,211.724
					z"/>
				<path fill="#3197C5" d="M293.785,214.21c-0.121-0.001-0.243-0.003-0.364-0.004c-0.005-0.898,0.119-1.759,0.72-2.481
					C294.022,212.553,293.904,213.381,293.785,214.21z"/>
				<path fill="#3197C5" d="M290.233,224.513c-0.23-0.118-0.461-0.236-0.691-0.354c-0.2-0.163-0.236-0.376-0.193-0.616
					c0.057-0.146,0.141-0.274,0.248-0.387c0.296-0.216,0.515-0.616,0.987-0.424l0.012,0.01
					C290.474,223.333,290.353,223.923,290.233,224.513z"/>
				<path fill="#3099C8" d="M317.234,150.268c0.354-0.238,0.709-0.475,1.063-0.713c-0.029,0.719-0.496,1.108-1.067,1.42
					C317.231,150.74,317.232,150.504,317.234,150.268z"/>
				<path fill="#3099C8" d="M305.154,162.347c0.236-0.001,0.472-0.002,0.707-0.004c-0.312,0.571-0.701,1.039-1.42,1.067
					C304.679,163.056,304.917,162.702,305.154,162.347z"/>
				<path fill="#3099C8" d="M291.298,221.672c-0.023-0.696,0.144-1.317,0.71-1.778C292.03,220.59,291.861,221.209,291.298,221.672z"
					/>
				<path fill="#3099C8" d="M296.626,203.552c0-0.592-0.001-1.185-0.001-1.777c0.059-0.045,0.119-0.089,0.178-0.134
					c0.059,0.045,0.118,0.09,0.177,0.135l0.003,0.002C296.895,202.376,297.219,203.056,296.626,203.552z"/>
				<path fill="#3099C8" d="M319.361,148.488c-0.149-0.283-0.411-0.346-0.698-0.357c0.106-0.11,0.211-0.221,0.316-0.331
					c0.363-0.015,0.727-0.03,1.091-0.046C319.947,148.109,319.707,148.35,319.361,148.488z"/>
				<path fill="#3195C2" d="M262.518,269.268c0,0.356,0.001,0.712,0.001,1.068c-1.953,1.372-3.167,3.448-4.852,5.089
					c-4.59,4.47-9.405,8.666-14.441,12.618c-0.406,0.319-0.818,0.433-1.302,0.416l-0.011-0.006
					c-0.199-0.781,0.472-1.014,0.904-1.344c4.027-3.089,7.89-6.367,11.503-9.933c1.346-1.626,3.05-2.915,4.325-4.609
					C259.906,271.431,260.6,269.63,262.518,269.268z"/>
				<path fill="#3196C3" d="M218.117,303.02c2.019-1.291,4.143-2.373,6.396-3.195C222.611,301.349,220.479,302.413,218.117,303.02z"
					/>
				<path fill="#3196C3" d="M200.356,309.765c2.054-0.942,4.171-1.693,6.395-2.126C204.767,308.793,202.629,309.483,200.356,309.765
					z"/>
				<path fill="#3196C3" d="M206.75,307.64c0.494-0.485,1.151-0.562,1.779-0.709C208.169,307.751,207.436,307.636,206.75,307.64z"/>
				<path fill="#3196C3" d="M215.632,304.088c0.46-0.568,1.081-0.734,1.777-0.711C216.946,303.938,216.327,304.108,215.632,304.088z
					"/>
				<path fill="#3196C3" d="M210.657,306.217c0.462-0.564,1.082-0.732,1.778-0.709C211.972,306.07,211.354,306.241,210.657,306.217z
					"/>
				<path fill="#3196C3" d="M226.998,298.403c0.361-0.463,0.857-0.655,1.422-0.71C228.15,298.336,227.608,298.437,226.998,298.403z"
					/>
				<path fill="#3196C3" d="M214.21,304.797c0.361-0.463,0.857-0.655,1.422-0.709C215.361,304.732,214.818,304.83,214.21,304.797z"
					/>
				<path fill="#3082A6" d="M90.271,198.244c0.223-0.004,0.446-0.007,0.669-0.011c1.593,6.13,3.906,11.937,7.579,17.153
					c0.41,0.582,0.954,1.047,1.307,1.665c1.058,1.171,2.166,2.3,3.162,3.521c2.064,2.533,4.63,4.492,7.208,6.439
					c0.264,0.199,0.655,0.23,0.987,0.338c-0.008,0.35-0.015,0.7-0.023,1.049c-0.558,0.392-1.015,0.085-1.44-0.238
					c-9.652-7.332-16.219-16.755-19.307-28.528C90.297,199.188,90.316,198.708,90.271,198.244z"/>
				<path fill="#3081A3" d="M262.518,269.268c-1.329,1.039-2.502,2.234-3.551,3.553c-1.788,1.428-3.291,3.147-4.885,4.773
					c-3.996,3.97-8.318,7.554-12.874,10.861c-6.655,4.698-13.407,9.232-20.948,12.439c-0.36,0.222-0.719,0.275-1.076-0.005
					c3.803-2.253,7.814-4.127,11.57-6.472c6.006-3.75,11.736-7.862,17.137-12.445c3.333-2.829,6.587-5.741,9.589-8.916
					c7.674-8.118,14.524-16.866,20.162-26.54c5.94-10.192,10.815-20.857,14.25-32.148c2.347-7.716,4.084-15.572,5.129-23.586
					c0.938-7.196,1.487-14.409,1.342-21.659c-0.039-1.947,0.415-3.506,1.994-4.632c1.759-1.255,3.177-2.954,5.152-3.922
					c0.183,0.734-0.378,1.05-0.814,1.427c-1.205,1.041-2.442,2.042-3.724,2.987c-1.316,0.971-1.935,2.21-1.89,3.936
					c0.167,6.363,0.012,12.72-0.811,19.042c-0.03,0.178-0.054,0.361-0.069,0.542c-0.263,0.746-0.104,1.53-0.187,2.292
					c-0.021,0.164-0.067,0.321-0.134,0.472c-0.326,0.598-0.134,1.254-0.208,1.881c-0.008,0.158-0.034,0.313-0.073,0.465
					c-0.222,0.585-0.197,1.212-0.291,1.818c-0.026,0.15-0.067,0.298-0.113,0.443c-0.183,0.5-0.163,1.03-0.221,1.548
					c-0.019,0.148-0.055,0.293-0.098,0.435c-0.194,0.479-0.218,0.993-0.296,1.495c-0.028,0.144-0.069,0.284-0.117,0.422
					c-0.19,0.483-0.161,1.005-0.266,1.504c-0.035,0.149-0.092,0.288-0.164,0.421c-0.233,0.475,0.021,1.105-0.476,1.495
					c-1.115,2.475-1.106,5.252-2.097,7.767c-0.404,1.026-0.591,2.137-0.913,3.198c-0.126,0.415-0.275,0.789,0.151,1.11
					c-0.104,0.238-0.208,0.477-0.312,0.715c-0.476,1.187-0.952,2.375-1.428,3.562c-0.421,0.553-0.277,1.26-0.509,1.865
					c-0.321,0.673-0.399,1.457-0.922,2.039l-0.003-0.004c-0.308,0.457-0.306,0.996-0.399,1.51c-0.035,0.148-0.088,0.29-0.157,0.424
					c-0.239,0.465-0.504,0.92-0.577,1.453c-0.045,0.148-0.109,0.287-0.186,0.42c-0.253,0.481-0.473,0.974-0.577,1.512
					c-0.146,0.28-0.265,0.573-0.404,0.857c-0.302,0.549-0.814,0.997-0.796,1.697c-0.281,0.862-0.651,1.682-1.165,2.432
					c-0.007,0.29-0.059,0.559-0.345,0.714c-0.425,0.381-0.485,0.945-0.714,1.424c-0.376,1.29-0.967,2.474-1.768,3.552
					c-0.433,0.411-0.553,0.957-0.647,1.514c-1.691,3.639-3.993,6.94-5.807,10.51c-0.287,0.389-0.452,0.858-0.785,1.218
					c-0.545,0.649-0.998,1.362-1.426,2.092c-0.259,0.386-0.435,0.827-0.766,1.165c-0.553,0.561-0.995,1.2-1.33,1.915
					c-2.879,3.943-5.638,7.982-9.157,11.41V269.268z"/>
				<path fill="#3195C2" d="M274.951,252.573c0.237-0.356,0.474-0.711,0.711-1.067c0.556-0.392,0.385-1.513,1.425-1.418
					c0.001,0.12,0.002,0.239,0.003,0.359c-3.228,5.494-7.074,10.547-11.072,15.488c-1.015,1.254-1.77,2.817-3.501,3.333
					c1.026-2.072,2.857-3.514,4.216-5.333c1.578-2.112,3.12-4.251,4.675-6.381c0.636-0.464,0.923-1.204,1.412-1.784
					c0.237-0.356,0.474-0.711,0.71-1.067C274.101,254.057,274.515,253.308,274.951,252.573z"/>
				<path fill="#318BB2" d="M277.087,250.088c-0.722,0.224-0.692,1.204-1.425,1.418c1.388-2.5,2.766-5.005,4.167-7.498
					c0.6-1.066,1.248-2.106,1.874-3.157c0.121-0.169,0.24-0.169,0.359,0.002c-0.814,2.601-2.545,4.716-3.769,7.099
					C277.919,248.679,277.49,249.377,277.087,250.088z"/>
				<path fill="#318BB2" d="M285.262,233.752c-0.014-0.987,0.42-1.783,1.057-2.494c0.122-0.168,0.243-0.167,0.361,0.004
					C286.569,232.298,286.418,233.311,285.262,233.752z"/>
				<path fill="#318BB2" d="M287.034,229.484c0.007-0.292,0.066-0.558,0.352-0.712c0.254-0.202,0.124-0.645,0.487-0.779
					c0.077,0.024,0.153,0.048,0.23,0.072c-0.007,0.978-0.415,1.782-1.069,2.481C286.768,230.192,286.798,229.838,287.034,229.484z"
					/>
				<path fill="#3188AF" d="M287.034,229.484c0,0.354,0,0.708,0,1.062c-0.282,0.157-0.341,0.425-0.353,0.716
					c-0.12-0.001-0.241-0.003-0.361-0.004C286.307,230.566,286.473,229.946,287.034,229.484z"/>
				<path fill="#3188AF" d="M288.811,225.222c-0.019-0.695,0.145-1.316,0.713-1.775c0.006,0.237,0.012,0.474,0.018,0.712
					c-0.009,0.117-0.016,0.235-0.019,0.353C289.209,224.672,289.493,225.431,288.811,225.222z"/>
				<path fill="#318BB2" d="M288.813,226.29c0.02,0.695-0.152,1.313-0.711,1.776l-0.006-0.004c-0.264-0.355-0.229-0.71,0.003-1.063
					c0.248-0.206,0.12-0.646,0.483-0.781C288.66,226.242,288.737,226.266,288.813,226.29z"/>
				<path fill="#318BB2" d="M288.811,225.222c0.237-0.237,0.474-0.474,0.711-0.71c0.022,0.696-0.15,1.314-0.709,1.778l-0.006-0.004
					C288.544,225.931,288.578,225.576,288.811,225.222z"/>
				<path fill="#3188AF" d="M284.203,235.891c-0.045-0.617,0.042-1.167,0.714-1.424
					C284.848,235.026,284.654,235.523,284.203,235.891z"/>
				<path fill="#3188AF" d="M282.062,240.853c-0.12-0.001-0.239-0.001-0.359-0.002c-0.022-0.608,0.057-1.163,0.732-1.408
					C282.311,239.913,282.186,240.383,282.062,240.853z"/>
				<path fill="#386980" d="M177.618,117.927c-0.121,0.013-0.241,0.027-0.362,0.04c-0.823,0.113-1.645,0.225-2.468,0.338
					c0.924-0.741,1.428-2.04,2.837-2.137c0.459,0.474-1.285,0.976,0.019,1.44C177.626,117.714,177.618,117.82,177.618,117.927z"/>
				<path fill="#588798" d="M291.924,97.289c0.15-0.104,0.3-0.208,0.451-0.311c0.596,0.007,1.191,0.014,1.787,0.021
					c-0.494,0.498-1.138,0.296-1.723,0.366C292.246,97.482,292.075,97.457,291.924,97.289z"/>
				<path fill="#558899" d="M291.924,97.289c0.171,0.025,0.342,0.05,0.514,0.075c0.222,0.923,1.367,0.939,1.711,1.742
					c-0.001,0.128-0.001,0.256-0.002,0.384c-4.158,6.048-12.075,7.403-18.146,3.872C280.68,99.69,285.795,97.16,291.924,97.289z"/>
				<path fill="#3188AF" d="M298.047,188.632c0.619-6.877,0.84-13.767,0.729-20.672c-0.03-1.842,1.509-2.716,2.685-3.748
					c1.365-1.198,3.005-2.085,4.047-3.643c4.194-3.513,8.031-7.373,11.365-11.72c0.44-0.241,0.897-0.411,1.411-0.358
					c-0.233,0.662-1.092,0.951-1.056,1.773c-0.968,0.826-2.098,1.511-2.493,2.84c-0.117,0.117-0.233,0.235-0.35,0.352
					c-2.152,1.877-4.166,3.892-6.044,6.043c-0.117,0.117-0.234,0.233-0.352,0.35c-1.328,0.396-2.014,1.525-2.84,2.493
					c-1.445,0.621-2.465,1.774-3.552,2.843c-1.535,0.445-2.12,1.564-2.127,3.058c-0.014,3.126,0.159,6.264-0.048,9.377
					c-0.245,3.675-0.243,7.384-1.019,11.014C298.285,188.758,298.166,188.758,298.047,188.632z"/>
				<path fill="#3081A5" d="M219.183,300.889c0.359,0.002,0.717,0.003,1.076,0.005c-4.043,2.485-8.497,4.059-12.9,5.721
					c-2.51,0.947-5.02,1.954-7.69,2.421c-0.121-0.232-0.241-0.463-0.362-0.695c6.354-1.715,12.402-4.246,18.407-6.891
					C218.194,301.239,218.693,301.075,219.183,300.889z"/>
				<path fill="#3081A4" d="M99.826,217.051c-1.775-1.215-2.596-3.162-3.61-4.914c-2.511-4.335-4.463-8.911-5.275-13.904
					c0.12,0,0.24,0.001,0.361,0.001c1.434,6.466,4.097,12.38,7.99,17.737C99.537,216.31,99.827,216.601,99.826,217.051z"/>
				<path fill="#619CB3" d="M316.168,122.561c0.03-0.767-0.15-1.376-1.072-1.427c0.402-0.481,0.839-0.414,1.176,0.023
					C316.625,121.615,316.66,122.127,316.168,122.561z"/>
				<path fill="#2F5363" d="M219.217,112.183c-0.01-0.684-0.02-1.368-0.03-2.052c1.144-0.974,2.61-1.188,3.977-1.558
					c1.377-0.373,2.719-0.962,4.184-0.977c2.877-0.675,5.755-1.35,8.632-2.025c4.924-1.066,9.93-1.541,14.934-2
					c1.983-0.182,3.965-0.408,5.961-0.456c0.475-0.011,0.934-0.115,1.336,0.228c0.531,0.014,1.073,0.103,1.591,0.029
					c1.379-0.199,1.838,0.421,1.653,1.702c-4.652,0.394-9.303,0.785-13.954,1.192c-0.217,0.019-0.422,0.171-0.632,0.261
					c-0.096,0.139-0.209,0.155-0.339,0.046c-6.957,0.628-13.785,1.976-20.538,3.726
					C223.723,110.886,221.475,111.552,219.217,112.183z"/>
				<path fill="#F9E51E" d="M258.21,103.342c-6.868,0.281-13.693,0.98-20.472,2.123c-0.576,0.097-1.172,0.072-1.759,0.104
					c0.511-0.754,1.393-0.637,2.089-0.732c5.925-0.806,11.855-1.516,17.835-1.891c4.697-0.295,9.38-0.725,14.09-0.63
					c0.689,0.014,1.293-0.045,1.661-0.717c0.242,0.337,0.483,0.675,0.725,1.012c-3.047,0.152-6.11-0.023-9.144,0.427
					C261.564,103.197,259.857,102.77,258.21,103.342z"/>
				<path fill="#F3DF27" d="M227.348,107.595c-2.693,0.934-5.539,1.373-8.161,2.536c-0.714,0.221-1.428,0.443-2.142,0.664
					c-2.116,0.67-4.233,1.339-6.349,2.009c0.109-0.565,0.59-0.707,1.028-0.856c4.848-1.642,9.728-3.183,14.663-4.544
					C226.753,107.303,227.08,107.266,227.348,107.595z"/>
				<path fill="#354952" d="M217.064,110.942c0.621,0.45,0.244,1.073,0.279,1.624c-0.001,0-0.142,0.027-0.142,0.027l-0.144-0.01
					C217.06,112.036,217.062,111.489,217.064,110.942z"/>
				<path fill="#57899A" d="M246.53,106.572c0.112-0.021,0.225-0.036,0.339-0.046c1.211-0.002,1.478,1.137,2.154,1.782
					c-1.302,0-2.605-0.001-3.907-0.001C245.587,107.729,246.059,107.15,246.53,106.572z"/>
				<path fill="#838485" d="M226.274,120.828c-1.437,0.648-2.943,0.179-4.416,0.272
					C223.306,120.633,224.798,120.851,226.274,120.828z"/>
				<path fill="#838485" d="M230.537,120.473c-0.94,0.618-1.975,0.2-2.966,0.269C228.533,120.359,229.541,120.487,230.537,120.473z"
					/>
				<path fill="#838485" d="M234.465,120.11c-0.001,0.105-0.002,0.209-0.003,0.314c-0.765-0.013-1.531-0.026-2.297-0.039
					C232.893,119.978,233.685,120.097,234.465,120.11z"/>
				<path fill="#318CB4" d="M241.207,288.455c1.518-1.738,3.574-2.827,5.266-4.361c2.48-2.248,5.014-4.436,7.525-6.65
					c0.233-0.203,0.467-0.22,0.702-0.002c-4.006,3.968-8.432,7.447-12.785,11.011C241.679,288.454,241.443,288.454,241.207,288.455z
					"/>
				<path fill="#318BB2" d="M298.047,188.632c0.119,0,0.238,0,0.358,0.001c0.229,1.799-0.531,3.531-0.36,5.327h0.001
					c-0.461,0.654,0.09,1.476-0.356,2.132l0.001-0.001c-0.331,1.286-0.399,2.62-0.711,3.909l0.001-0.001
					c-0.44,0.528,0.071,1.246-0.356,1.776h0.001c-0.572,0.307-0.137,1.116-0.708,1.424l-0.005-0.004
					c-0.263-0.591-0.263-1.183,0.003-1.773c0.436-0.529-0.06-1.244,0.355-1.776c0.438-0.528-0.063-1.244,0.355-1.776
					c0.001-0.118,0.002-0.237,0.002-0.356c0.432-0.529-0.062-1.243,0.353-1.776l0,0c0.463-0.653-0.089-1.475,0.355-2.132
					c0.001-0.118,0.002-0.237,0.002-0.355c0.458-0.654-0.089-1.474,0.353-2.131l0,0
					C298.172,190.342,297.587,189.412,298.047,188.632z"/>
				<path fill="#3188AF" d="M295.916,201.421c-0.001,0.591-0.002,1.182-0.003,1.773c-0.119,0-0.238,0-0.357,0
					C295.649,202.598,295.326,201.917,295.916,201.421z"/>
				<path fill="#318BB2" d="M289.527,223.451c0.016-0.784,0.187-1.518,0.703-2.137c0.319-0.154,0.018-0.931,0.712-0.71
					c-0.12,0.709-0.24,1.419-0.36,2.128C290.218,222.954,290.076,223.501,289.527,223.451z"/>
				<path fill="#3188AF" d="M290.942,220.604c-0.237,0.237-0.475,0.473-0.712,0.71c-0.009-0.693,0.134-1.322,0.727-1.767
					C290.952,219.899,290.947,220.252,290.942,220.604z"/>
				<path fill="#3197C5" d="M296.98,200c-0.02-1.35,0.102-2.674,0.711-3.909c0,0.711,0,1.422,0,2.133
					C297.015,198.64,297.66,199.585,296.98,200z"/>
				<path fill="#3197C5" d="M297.69,196.092c0.113-0.712-0.282-1.508,0.356-2.132C297.931,194.671,298.339,195.469,297.69,196.092z"
					/>
				<path fill="#3197C5" d="M296.624,201.775c0.085-0.599-0.232-1.278,0.356-1.776c0,0.592,0,1.185,0,1.777
					C296.862,201.775,296.743,201.775,296.624,201.775z"/>
				<path fill="#318BB2" d="M254.7,277.442c-0.234,0.001-0.468,0.001-0.702,0.002c1.542-1.664,2.88-3.547,4.969-4.623
					C257.544,274.361,256.122,275.902,254.7,277.442z"/>
				<path fill="#318BB2" d="M274.951,252.573c-0.137,0.935-0.558,1.68-1.421,2.131C273.763,253.832,274.206,253.102,274.951,252.573
					z"/>
				<path fill="#318BB2" d="M272.82,255.77c-0.196,0.812-0.528,1.517-1.412,1.784C271.733,256.844,272.051,256.128,272.82,255.77z"
					/>
				<path fill="#3188AF" d="M298.047,188.632c-0.138,0.826,0.327,1.738-0.355,2.487
					C297.829,190.293,297.369,189.381,298.047,188.632z"/>
				<path fill="#3188AF" d="M297.337,193.605c-0.115,0.711,0.29,1.509-0.355,2.132C297.096,195.026,296.696,194.229,297.337,193.605
					z"/>
				<path fill="#3188AF" d="M288.1,226.998c-0.001,0.354-0.002,0.709-0.003,1.063c-0.237,0.237-0.474,0.474-0.711,0.711
					C287.373,228.08,287.536,227.459,288.1,226.998z"/>
				<path fill="#3188AF" d="M297.692,191.119c-0.114,0.711,0.288,1.507-0.353,2.131
					C297.451,192.539,297.051,191.743,297.692,191.119z"/>
				<path fill="#3188AF" d="M288.811,225.222c-0.001,0.355-0.002,0.709-0.003,1.064c-0.236,0.238-0.472,0.475-0.707,0.713
					C288.08,226.304,288.248,225.684,288.811,225.222z"/>
				<path fill="#3188AF" d="M296.271,199.645c-0.086,0.599,0.238,1.279-0.355,1.776
					C296.002,200.823,295.681,200.143,296.271,199.645z"/>
				<path fill="#3188AF" d="M296.981,195.738c-0.086,0.598,0.237,1.278-0.353,1.776
					C296.713,196.915,296.392,196.236,296.981,195.738z"/>
				<path fill="#3188AF" d="M296.626,197.869c-0.086,0.599,0.238,1.279-0.355,1.776
					C296.358,199.046,296.036,198.366,296.626,197.869z"/>
			</g>
		</g>
		<text transform="matrix(1 0 0 1 409.988 312.6333)" fill="#FFFFFF" font-family="'zAristaLight'" font-size="345.7638">tweather </text>
	</g>
</g>
</svg>
