<?xml version="1.0" encoding="utf-8"?>
<!-- Generator: Adobe Illustrator 17.0.0, SVG Export Plug-In . SVG Version: 6.00 Build 0)  -->
<!DOCTYPE svg PUBLIC "-//W3C//DTD SVG 1.1//EN" "http://www.w3.org/Graphics/SVG/1.1/DTD/svg11.dtd">
<svg version="1.1" id="Layer_1" xmlns="http://www.w3.org/2000/svg" xmlns:xlink="http://www.w3.org/1999/xlink" x="0px" y="0px"
	 width="1000px" height="1000px" viewBox="0 0 1000 1000" enable-background="new 0 0 1000 1000" xml:space="preserve">
<g>
	<path fill="#243447" d="M1000,800c0,110-90,200-200,200H200C90,1000,0,910,0,800V200C0,90,90,0,200,0h600c110,0,200,90,200,200V800
		z"/>
</g>
<g>
	<path fill="#2AA8DF" d="M381.816,874.785c-35.031,0-70.063,0-105.094,0c-0.851-0.231-1.69-0.588-2.556-0.675
		c-28.985-2.903-57.545-8.094-85.688-15.643C136.29,844.468,87.393,822.961,41.604,794.33c-0.831-0.519-2.247-0.679-2.187-2.488
		c49.651,5.434,98.511,1.648,146.524-11.864c47.952-13.494,91.575-35.579,131.053-66.279c-1.521-1.111-2.857-0.904-4.105-0.951
		c-14.861-0.568-29.468-2.799-43.678-7.175c-61.992-19.089-104.188-59.192-126.874-119.895c-1.579-4.225-1.376-4.43,3.021-3.701
		c22.587,3.747,45.126,3.459,67.595-0.883c3.795-0.733,7.723-1.196,11.669-3.049c-2.273-1.417-4.366-1.395-6.305-1.897
		c-42.594-11.028-77.644-33.701-104.545-68.524c-25.958-33.602-38.831-71.89-39.478-114.318c-0.032-2.117-0.349-4.049,2.932-2.283
		c19.672,10.59,40.616,17.372,62.735,20.483c6.132,0.862,12.286,1.673,19.56,1.459c-41.164-29.16-67.932-67.117-78.856-115.377
		c-10.925-48.265-3.669-94.078,20.827-137.681c11.412,13.755,22.797,26.529,34.848,38.707
		c37.661,38.061,80.005,69.866,127.074,95.389c35.186,19.079,72.059,33.96,110.593,44.791
		c37.554,10.556,75.791,16.892,114.725,19.154c2.832,0.165,3.768-0.068,3.072-3.424c-7.054-34.006-5.937-67.785,6.005-100.461
		c25.238-69.053,74.246-111.067,146.362-125.857c6.498-1.333,13.13-2.009,19.7-2.991c9.273,0,18.546,0,27.819,0
		c5.678,1.594,11.597,1.555,17.367,2.583c40.802,7.271,75.757,25.589,104.706,55.265c1.575,1.615,3.041,1.903,5.125,1.468
		c32.906-6.875,64.426-17.715,94.398-32.966c7.412-3.771,14.701-7.783,22.765-12.066c-7.13,22.058-17.66,41.444-31.523,59.054
		c-13.922,17.686-30.608,32.353-49.467,44.726c36.653-4.107,71.642-13.828,105.526-28.544c-0.122,2.05-1.246,3.012-2.015,4.125
		c-24.446,35.371-53.96,65.843-88.568,91.353c-2.1,1.548-3.089,3.056-2.847,5.693c0.352,3.841,0.427,7.713,0.487,11.575
		c0.825,52.75-6.125,104.501-20.709,155.16c-29.155,101.27-81.432,188.488-159.342,259.854
		c-46.331,42.44-98.977,74.84-157.53,97.661c-40.466,15.772-82.28,26.156-125.324,31.707
		C397.098,872.848,389.456,873.812,381.816,874.785z"/>
</g>
</svg>
