<?xml version="1.0" encoding="utf-8"?>
<!-- Generator: Adobe Illustrator 17.0.0, SVG Export Plug-In . SVG Version: 6.00 Build 0)  -->
<!DOCTYPE svg PUBLIC "-//W3C//DTD SVG 1.1//EN" "http://www.w3.org/Graphics/SVG/1.1/DTD/svg11.dtd">
<svg version="1.1" id="Layer_1" xmlns="http://www.w3.org/2000/svg" xmlns:xlink="http://www.w3.org/1999/xlink" x="0px" y="0px"
	 width="1000px" height="1000px" viewBox="0 0 1000 1000" enable-background="new 0 0 1000 1000" xml:space="preserve">
<g>
	<path fill="#243447" d="M1000,800c0,110-90,200-200,200H200C90,1000,0,910,0,800V200C0,90,90,0,200,0h600c110,0,200,90,200,200V800
		z"/>
</g>
<g>
	<path fill="#2AA9E0" d="M933.514,288.826c-31.899,14.161-66.183,23.699-102.165,27.998c36.74-22.001,64.955-56.863,78.213-98.408
		c-34.356,20.375-72.433,35.187-112.967,43.171c-32.405-34.573-78.683-56.176-129.838-56.176
		c-114.845,0-199.236,107.15-173.297,218.383c-147.792-7.406-278.858-78.213-366.609-185.833
		c-46.603,79.947-24.168,184.533,55.02,237.494c-29.118-0.939-56.574-8.923-80.525-22.254
		c-1.951,82.404,57.116,159.497,142.662,176.657c-25.035,6.792-52.455,8.381-80.345,3.035
		c22.615,70.663,88.292,122.07,166.18,123.515c-74.781,58.633-168.998,84.824-263.36,73.697
		c78.719,50.468,172.25,79.911,272.68,79.911c330.266,0,516.857-278.93,505.586-529.104
		C879.506,355.804,909.671,324.482,933.514,288.826z"/>
	<polygon fill="#818282" points="560.532,262.042 560.724,198.182 567.775,196.472 567.337,261.703 	"/>
	<polygon fill="#818282" points="731.767,246.715 713.608,174.629 719.902,170.727 738.219,244.428 	"/>
	<path fill="#818282" d="M548.016,250.534c71.062,2.005,153.352-14.512,196.254-27.771c0,0,15.001,7.204,19.393,10.252
		c3.923,2.723,14.536,11.32,14.536,11.32c-62.263,35.667-156.485,47.67-267.227,52.722c0,0,3.64-7.827,16.456-24.873
		C539.779,255.755,548.016,250.534,548.016,250.534z"/>
	<path fill="#58595B" d="M607.27,85.823l-10.478,1.888c0,0,1.513-1.579,1.557-3.974c0.127-8.321-4.28-32.994-4.28-32.994
		l4.802-0.759c0,0,3.09,26.104,5.26,32.839C604.802,84.946,606.336,85.621,607.27,85.823z"/>
	<path opacity="0.3" d="M860.266,165.347c0,0-45.615-0.883-59.612,4.393c-13.984,5.261-35.98,20.869-35.98,20.869
		s-86.172,3.722-141.522,14.552c-55.338,10.815-118.903,34.753-118.903,34.753s-23.024-10.822-53.107-7.352
		c-30.083,3.471-59.508,15.06-59.508,15.06s57.12-91.991,102.174-112.667c45.052-20.689,106.011-38.725,106.011-38.725l10.84-1.95
		c0.467,0.091,0.796,0.077,0.796,0.077s94.156-10.208,145.285,10.888C807.869,126.353,860.266,165.347,860.266,165.347z"/>
	<path fill="#29A54A" d="M595.811,73.46c-12.029,4.73-40.044,16.847-47.785,29.888c-13.028,21.945-40.854,128.469-41.233,129.961
		h-0.013c0,0-22.615-12.939-51.732-9.904c-28.737,3.01-56.664,14.976-57.41,15.292c0.822-1.581,53.629-102.704,96.544-124.624
		C535.403,93.002,590.714,75.092,595.811,73.46z"/>
	<path fill="#FDDA2D" d="M758.607,185.044c-0.088,0.076-0.139,0.114-0.139,0.114s-83.58,1.657-137.07,12.294
		c-53.009,10.536-113.569,35.428-114.606,35.858c0.379-1.492,28.206-108.016,41.233-129.961
		c7.741-13.04,35.757-25.157,47.785-29.888c0.076-0.013,0.139-0.051,0.215-0.076c0.101-0.038,0.165-0.051,0.165-0.051l10.258-1.847
		h0.367c0,0,0.013,0,0.025,0c0.367,0.076,0.607,0.076,0.607,0.076s0.341-0.038,0.974-0.101h0.101
		c18.239-0.164,48.949,0.86,60.029,8.968C687.119,94.001,743.606,165.806,758.607,185.044z"/>
	<path fill="#818282" d="M606.676,71.449c0.05,0.013,0.088,0.025,0.139,0.038h-0.354L606.676,71.449z"/>
	<path fill="#D72627" d="M850.687,160.004c0,0-44.307-2.353-57.777,3.213c-12.826,5.287-32.494,21.021-34.302,22.476
		c-15.001-19.238-71.488-91.042-90.056-104.614c-11.08-8.108-41.79-9.132-60.029-8.968c10.397-0.885,93.294-7.058,140.232,16.734
		C798.892,114.268,850.687,160.004,850.687,160.004z"/>
	<path fill="none" stroke="#58595B" stroke-width="1.4385" stroke-miterlimit="10" d="M506.779,233.322c0,0,0,0,0-0.013"/>
	<path fill="none" stroke="#58595B" stroke-width="1.4215" stroke-miterlimit="10" d="M506.779,233.309
		c0,0,29.085-107.674,41.246-129.961c9.215-16.89,51.421-31.768,51.421-31.768"/>
	<path fill="none" stroke="#58595B" stroke-width="1.4215" stroke-miterlimit="10" d="M758.607,185.044
		c0,0-67.787-88.854-89.567-103.6c-16.408-11.109-69.593-9.863-69.593-9.863"/>
</g>
</svg>
